<?xml version="1.0" encoding="UTF-8" standalone="no"?>
<!-- Generator: Adobe Illustrator 25.2.0, SVG Export Plug-In . SVG Version: 6.00 Build 0)  -->

<svg
   version="1.1"
   id="Layer_1"
   x="0px"
   y="0px"
   viewBox="0 0 342.45001 270.73499"
   xml:space="preserve"
   sodipodi:docname="berhinger.svg"
   width="342.45001"
   height="270.73499"
   inkscape:version="1.3 (0e150ed6c4, 2023-07-21)"
   xmlns:inkscape="http://www.inkscape.org/namespaces/inkscape"
   xmlns:sodipodi="http://sodipodi.sourceforge.net/DTD/sodipodi-0.dtd"
   xmlns="http://www.w3.org/2000/svg"
   xmlns:svg="http://www.w3.org/2000/svg"><defs
   id="defs112" /><sodipodi:namedview
   id="namedview112"
   pagecolor="#ffffff"
   bordercolor="#000000"
   borderopacity="0.25"
   inkscape:showpageshadow="2"
   inkscape:pageopacity="0.0"
   inkscape:pagecheckerboard="0"
   inkscape:deskcolor="#d1d1d1"
   inkscape:zoom="1.165"
   inkscape:cx="167.81116"
   inkscape:cy="152.36052"
   inkscape:window-width="2560"
   inkscape:window-height="1371"
   inkscape:window-x="1920"
   inkscape:window-y="310"
   inkscape:window-maximized="1"
   inkscape:current-layer="g112" />&#10;<g
   id="watermark_1_"
   transform="translate(-332.357,-347.59)">&#10;	<g
   id="g70">&#10;		<g
   id="watermark"
   style="opacity:0.61">&#10;			<g
   id="g35">&#10;				<g
   id="g24">&#10;					<g
   id="g5">&#10;						<g
   id="g1">&#10;							<polygon
   style="fill:#606060"
   points="402.615,952.493 390.55,924.528 397.541,924.528 406.051,944.503 414.68,924.528 421.112,924.528 409.007,952.493 "
   id="polygon1" />&#10;						</g>&#10;						<g
   id="g2">&#10;							<path
   style="fill:#606060"
   d="m 442.323,943.185 h -16.26 c 0.599,2.677 2.876,4.315 6.153,4.315 2.277,0 3.915,-0.679 5.393,-2.077 l 3.316,3.595 c -1.997,2.278 -4.994,3.476 -8.868,3.476 -7.431,0 -12.265,-4.674 -12.265,-11.067 0,-6.432 4.914,-11.066 11.466,-11.066 6.312,0 11.186,4.235 11.186,11.146 -0.001,0.48 -0.081,1.159 -0.121,1.678 m -16.34,-3.635 h 10.587 c -0.44,-2.717 -2.478,-4.475 -5.274,-4.475 -2.836,0 -4.874,1.718 -5.313,4.475"
   id="path1" />&#10;						</g>&#10;						<g
   id="g3">&#10;							<path
   style="fill:#606060"
   d="m 444.997,941.427 c 0,-6.471 4.994,-11.066 11.985,-11.066 4.514,0 8.07,1.958 9.628,5.473 l -4.834,2.597 c -1.159,-2.038 -2.877,-2.956 -4.834,-2.956 -3.156,0 -5.633,2.198 -5.633,5.952 0,3.756 2.477,5.953 5.633,5.953 1.958,0 3.675,-0.879 4.834,-2.956 l 4.834,2.637 c -1.558,3.436 -5.114,5.433 -9.628,5.433 -6.991,-10e-4 -11.985,-4.595 -11.985,-11.067"
   id="path2" />&#10;						</g>&#10;						<g
   id="g4">&#10;							<path
   style="fill:#606060"
   d="m 484.386,951.135 c -1.279,0.919 -3.157,1.358 -5.074,1.358 -5.073,0 -8.03,-2.597 -8.03,-7.711 v -8.829 h -3.316 v -4.794 h 3.316 v -5.233 h 6.232 v 5.233 h 5.353 v 4.794 h -5.353 v 8.749 c 0,1.837 0.998,2.836 2.677,2.836 0.918,0 1.837,-0.279 2.517,-0.799 z"
   id="path3" />&#10;						</g>&#10;					</g>&#10;					<g
   id="g6">&#10;						<path
   style="fill:#606060"
   d="m 527.157,930.68 v 5.753 c -0.519,-0.04 -0.918,-0.08 -1.398,-0.08 -3.435,0 -5.713,1.877 -5.713,5.993 v 10.147 h -6.232 V 931 h 5.953 v 2.836 c 1.517,-2.077 4.074,-3.156 7.39,-3.156"
   id="path5" />&#10;					</g>&#10;					<g
   id="g7">&#10;						<path
   style="fill:#606060"
   d="m 528.954,949.257 2.197,-4.874 c 2.357,1.718 5.873,2.916 9.229,2.916 3.836,0 5.393,-1.278 5.393,-2.996 0,-5.233 -16.26,-1.638 -16.26,-12.025 0,-4.754 3.835,-8.709 11.785,-8.709 3.516,0 7.112,0.839 9.708,2.477 l -1.998,4.914 c -2.597,-1.478 -5.273,-2.197 -7.75,-2.197 -3.835,0 -5.313,1.438 -5.313,3.196 0,5.154 16.259,1.598 16.259,11.865 0,4.675 -3.875,8.67 -11.865,8.67 -4.434,-10e-4 -8.909,-1.319 -11.385,-3.237"
   id="path6" />&#10;					</g>&#10;					<g
   id="g8">&#10;						<path
   style="fill:#606060"
   d="m 577.131,943.185 h -16.26 c 0.599,2.677 2.876,4.315 6.153,4.315 2.277,0 3.915,-0.679 5.393,-2.077 l 3.316,3.595 c -1.998,2.278 -4.994,3.476 -8.869,3.476 -7.431,0 -12.265,-4.674 -12.265,-11.067 0,-6.432 4.914,-11.066 11.466,-11.066 6.312,0 11.187,4.235 11.187,11.146 -10e-4,0.48 -0.081,1.159 -0.121,1.678 m -16.34,-3.635 h 10.587 c -0.439,-2.717 -2.477,-4.475 -5.273,-4.475 -2.837,0 -4.874,1.718 -5.314,4.475"
   id="path7" />&#10;					</g>&#10;					<g
   id="g9">&#10;						<path
   style="fill:#606060"
   d="m 602.337,943.185 h -16.26 c 0.599,2.677 2.876,4.315 6.152,4.315 2.277,0 3.915,-0.679 5.393,-2.077 l 3.316,3.595 c -1.998,2.278 -4.994,3.476 -8.869,3.476 -7.431,0 -12.265,-4.674 -12.265,-11.067 0,-6.432 4.914,-11.066 11.466,-11.066 6.312,0 11.186,4.235 11.186,11.146 10e-4,0.48 -0.079,1.159 -0.119,1.678 m -16.34,-3.635 h 10.587 c -0.439,-2.717 -2.477,-4.475 -5.273,-4.475 -2.837,0 -4.874,1.718 -5.314,4.475"
   id="path8" />&#10;					</g>&#10;					<g
   id="g10">&#10;						<polygon
   style="fill:#606060"
   points="612.841,952.493 606.61,952.493 606.61,922.85 612.841,922.85 612.841,939.629 621.95,931 629.381,931 620.432,940.108 630.18,952.493 622.63,952.493 615.838,944.064 612.841,947.02 "
   id="polygon9" />&#10;					</g>&#10;					<g
   id="g11">&#10;						<path
   style="fill:#606060"
   d="m 514.371,955.416 v 0 l -6.226,-6.226 c -0.947,1.107 -2.075,2.054 -3.339,2.796 -0.201,0.15 -0.406,0.296 -0.616,0.433 l 6.589,6.589 c 0.992,0.992 2.601,0.992 3.592,0 0.992,-0.991 0.992,-2.6 0,-3.592"
   id="path10" />&#10;					</g>&#10;					<g
   id="g12">&#10;						<path
   style="fill:#f84d10"
   d="m 499.965,929.04 c 0.48,-0.377 1.077,-0.612 1.735,-0.612 0.091,0 0.181,0.005 0.27,0.013 -0.466,-0.34 -1.041,-0.542 -1.663,-0.542 -0.859,0 -1.619,0.392 -2.137,0.998 -0.111,0 -0.218,0.013 -0.328,0.016 0.086,-0.167 0.139,-0.354 0.139,-0.555 0,-0.509 -0.311,-0.945 -0.752,-1.13 0.19,0.275 0.301,0.608 0.301,0.968 0,0.267 -0.066,0.517 -0.176,0.742 -6.119,0.437 -10.95,5.527 -10.95,11.757 0,6.516 5.283,11.799 11.799,11.799 6.517,0 11.8,-5.283 11.8,-11.799 0.001,-5.918 -4.359,-10.803 -10.038,-11.655 m -4.355,3.074 c 0.947,0 1.837,0.244 2.611,0.674 0.813,-0.532 1.785,-0.842 2.828,-0.842 1.547,0 2.934,0.68 3.883,1.756 -0.948,-0.826 -2.186,-1.328 -3.541,-1.328 -0.977,0 -1.895,0.261 -2.686,0.716 -0.172,0.1 -0.34,0.208 -0.499,0.326 -0.142,-0.104 -0.29,-0.203 -0.444,-0.292 -0.803,-0.476 -1.741,-0.749 -2.743,-0.749 -0.653,0 -1.279,0.117 -1.86,0.331 0.736,-0.378 1.568,-0.592 2.451,-0.592 m 8.248,9.671 c 0.25,0.664 0.394,1.38 0.394,2.131 0,3.34 -2.707,6.047 -6.047,6.047 -3.339,0 -6.047,-2.707 -6.047,-6.047 0,-0.751 0.143,-1.467 0.394,-2.131 -1.35,-0.831 -2.253,-2.317 -2.253,-4.019 0,-2.607 2.114,-4.72 4.72,-4.72 1.23,0 2.346,0.474 3.186,1.244 0.84,-0.77 1.956,-1.244 3.186,-1.244 2.607,0 4.72,2.113 4.72,4.72 0,1.701 -0.903,3.188 -2.253,4.019"
   id="path11" />&#10;					</g>&#10;					<g
   id="g13">&#10;						<path
   style="fill:#444444"
   d="m 503.627,937.351 c 0,1.082 -0.879,1.961 -1.961,1.961 -1.082,0 -1.961,-0.879 -1.961,-1.961 0,-1.082 0.879,-1.961 1.961,-1.961 0.22,0 0.428,0.037 0.625,0.102 -0.065,0.135 -0.099,0.287 -0.099,0.445 0,0.595 0.482,1.076 1.077,1.076 0.11,0 0.217,-0.017 0.318,-0.048 0.026,0.124 0.04,0.253 0.04,0.386"
   id="path12" />&#10;					</g>&#10;					<g
   id="g14">&#10;						<path
   style="fill:#444444"
   d="m 496.201,937.351 c 0,0.818 -0.665,1.482 -1.483,1.482 -0.818,0 -1.483,-0.664 -1.483,-1.482 0,-0.818 0.665,-1.483 1.483,-1.483 0.166,0 0.324,0.027 0.473,0.077 -0.049,0.102 -0.075,0.217 -0.075,0.337 0,0.449 0.364,0.814 0.814,0.814 0.083,0 0.164,-0.013 0.241,-0.036 0.02,0.093 0.03,0.191 0.03,0.291"
   id="path13" />&#10;					</g>&#10;					<g
   id="g23">&#10;						<g
   id="g18">&#10;							<g
   id="g15">&#10;								<rect
   x="484.56"
   y="939.02399"
   style="fill:#606060"
   width="1.34"
   height="1.34"
   id="rect14" />&#10;							</g>&#10;							<g
   id="g16">&#10;								<rect
   x="510.51001"
   y="939.02399"
   style="fill:#606060"
   width="1.34"
   height="1.34"
   id="rect15" />&#10;							</g>&#10;							<g
   id="g17">&#10;								<path
   style="fill:#606060"
   d="m 511.332,939.572 h -0.304 c 0,-7.07 -5.752,-12.823 -12.823,-12.823 -7.07,0 -12.823,5.753 -12.823,12.823 h -0.305 c 0,-3.506 1.365,-6.803 3.845,-9.282 2.479,-2.48 5.776,-3.845 9.282,-3.845 3.507,0 6.803,1.365 9.283,3.845 2.479,2.479 3.845,5.775 3.845,9.282"
   id="path16" />&#10;							</g>&#10;						</g>&#10;						<g
   id="g19">&#10;							<rect
   x="497.534"
   y="925.927"
   style="fill:#606060"
   width="1.34"
   height="1.34"
   id="rect18" />&#10;						</g>&#10;						<g
   id="g20">&#10;							<rect
   x="489.00601"
   y="926.44501"
   style="fill:#606060"
   width="18.396999"
   height="0.30399999"
   id="rect19" />&#10;						</g>&#10;						<g
   id="g21">&#10;							<path
   style="fill:#606060"
   d="m 489.494,926.658 c 0,0.235 -0.191,0.427 -0.427,0.427 -0.235,0 -0.426,-0.191 -0.426,-0.427 0,-0.236 0.191,-0.427 0.426,-0.427 0.236,0 0.427,0.191 0.427,0.427"
   id="path20" />&#10;						</g>&#10;						<g
   id="g22">&#10;							<path
   style="fill:#606060"
   d="m 507.829,926.658 c 0,0.235 -0.191,0.427 -0.427,0.427 -0.235,0 -0.426,-0.191 -0.426,-0.427 0,-0.236 0.191,-0.427 0.426,-0.427 0.237,0 0.427,0.191 0.427,0.427"
   id="path21" />&#10;						</g>&#10;					</g>&#10;				</g>&#10;				<g
   id="g25">&#10;					<path
   style="fill:#606060"
   d="m 640.109,951.171 c 0,3.395 -5.146,3.395 -5.146,0 0,-3.392 5.146,-3.392 5.146,0 z"
   id="path24" />&#10;				</g>&#10;				<g
   id="g34">&#10;					<g
   id="g29">&#10;						<g
   id="g26">&#10;							<path
   style="fill:#606060"
   d="m 307.849,936.236 3.859,13.253 4.038,-13.253 h 4.823 l -6.145,17.721 h -5.073 l -1.822,-5.216 -1.572,-5.896 -1.571,5.896 -1.822,5.216 h -5.073 l -6.18,-17.721 h 4.858 l 4.038,13.253 3.822,-13.253 z"
   id="path25" />&#10;						</g>&#10;						<g
   id="g27">&#10;							<path
   style="fill:#606060"
   d="m 340.449,936.236 3.859,13.253 4.038,-13.253 h 4.823 l -6.145,17.721 h -5.073 l -1.822,-5.216 -1.571,-5.896 -1.572,5.896 -1.822,5.216 h -5.073 l -6.18,-17.721 h 4.858 l 4.038,13.253 3.822,-13.253 z"
   id="path26" />&#10;						</g>&#10;						<g
   id="g28">&#10;							<path
   style="fill:#606060"
   d="m 373.048,936.236 3.859,13.253 4.038,-13.253 h 4.823 l -6.145,17.721 h -5.073 l -1.822,-5.216 -1.572,-5.896 -1.571,5.896 -1.822,5.216 h -5.073 l -6.18,-17.721 h 4.858 l 4.038,13.253 3.822,-13.253 z"
   id="path27" />&#10;						</g>&#10;					</g>&#10;					<g
   id="g30">&#10;						<path
   style="fill:#606060"
   d="m 393.123,951.412 c 0,3.395 -5.146,3.395 -5.146,0 0,-3.392 5.146,-3.392 5.146,0 z"
   id="path29" />&#10;					</g>&#10;					<g
   id="g31">&#10;						<path
   style="fill:#606060"
   d="m 658.296,951.171 c -2.036,2.001 -4.177,2.787 -6.787,2.787 -5.108,0 -9.361,-3.072 -9.361,-9.323 0,-6.251 4.253,-9.326 9.361,-9.326 2.502,0 4.43,0.716 6.359,2.609 l -2.752,2.894 c -1.036,-0.931 -2.321,-1.393 -3.534,-1.393 -2.929,0 -5.073,2.144 -5.073,5.216 0,3.357 2.286,5.143 5,5.143 1.393,0 2.787,-0.393 3.857,-1.463 z"
   id="path30" />&#10;					</g>&#10;					<g
   id="g32">&#10;						<path
   style="fill:#606060"
   d="m 678.097,944.777 c 0,5.073 -3.465,9.181 -9.181,9.181 -5.716,0 -9.146,-4.107 -9.146,-9.181 0,-5.038 3.502,-9.181 9.111,-9.181 5.609,0 9.216,4.143 9.216,9.181 z m -13.969,0 c 0,2.679 1.609,5.181 4.788,5.181 3.179,0 4.788,-2.502 4.788,-5.181 0,-2.644 -1.859,-5.216 -4.788,-5.216 -3.144,0 -4.788,2.572 -4.788,5.216 z"
   id="path31" />&#10;					</g>&#10;					<g
   id="g33">&#10;						<path
   style="fill:#606060"
   d="m 692.828,953.958 v -9.431 c 0,-2.324 -1.216,-4.43 -3.61,-4.43 -2.356,0 -3.75,2.106 -3.75,4.43 v 9.431 h -4.36 v -17.649 h 4.038 l 0.323,2.144 c 0.928,-1.786 2.964,-2.429 4.643,-2.429 2.109,0 4.218,0.858 5.216,3.287 1.574,-2.502 3.61,-3.217 5.896,-3.217 5,0 7.467,3.075 7.467,8.36 v 9.504 h -4.361 v -9.504 c 0,-2.321 -0.963,-4.288 -3.322,-4.288 -2.356,0 -3.822,2.036 -3.822,4.36 v 9.431 h -4.358 z"
   id="path32" />&#10;					</g>&#10;				</g>&#10;			</g>&#10;		</g>&#10;		<g
   style="opacity:0.61"
   id="g68">&#10;			<g
   id="g50">&#10;				<g
   id="g36">&#10;					<path
   style="fill:#606060"
   d="m 708.973,859.493 c -0.013,-2.665 -2.087,-4.618 -4.766,-4.659 -2.011,-0.031 -1.81,0.261 -1.815,-1.887 -0.006,-2.389 -0.015,-4.778 0.006,-7.166 0.007,-0.824 -0.243,-1.505 -0.787,-2.125 -5.098,-5.81 -10.184,-11.63 -15.281,-17.441 -0.262,-0.299 -0.599,-0.532 -0.901,-0.796 -13.528,0 -27.055,0 -40.583,0 -1.729,0.639 -2.482,1.889 -2.478,3.72 0.021,8.159 0.009,16.318 0.008,24.478 0,1.21 -0.007,1.281 -1.197,1.201 -3.258,-0.221 -5.477,2.147 -5.436,5.426 0.096,7.568 0.028,15.137 0.031,22.706 10e-4,3.44 1.887,5.32 5.333,5.331 1.267,0.004 1.268,0.004 1.268,1.306 10e-4,4.831 -0.002,9.662 0.002,14.493 0.002,2.595 1.262,3.855 3.85,3.855 17.446,0.001 34.891,0.001 52.337,0 2.543,0 3.822,-1.268 3.824,-3.799 0.005,-4.912 10e-4,-9.823 0.003,-14.735 0,-1.115 0.005,-1.112 1.131,-1.121 0.589,-0.005 1.177,0.017 1.761,-0.127 2.169,-0.535 3.68,-2.273 3.689,-4.503 0.035,-8.053 0.039,-16.105 10e-4,-24.157 z m -61.939,-30.777 c 11.619,-10e-4 23.237,-10e-4 34.856,0 1.193,0 1.206,0.015 1.207,1.222 10e-4,4.884 -0.002,9.767 0.002,14.651 10e-4,1.765 0.543,2.305 2.307,2.306 4.159,0.003 8.318,0 12.477,0.003 0.997,10e-4 1.044,0.046 1.046,1.052 0.006,1.932 0.005,3.864 0,5.796 -0.003,1.038 -0.051,1.085 -1.098,1.085 -8.479,0.002 -16.958,10e-4 -25.438,10e-4 -8.452,0 -16.905,0 -25.357,0 -1.198,0 -1.202,-0.003 -1.202,-1.221 -10e-4,-7.889 -10e-4,-15.778 0,-23.667 0.001,-1.22 0.01,-1.228 1.2,-1.228 z m 50.694,74.929 c -8.454,10e-4 -16.908,10e-4 -25.362,10e-4 -8.427,0 -16.854,0.001 -25.281,0 -1.245,0 -1.249,-0.003 -1.249,-1.262 -10e-4,-4.348 -0.003,-8.696 10e-4,-13.043 10e-4,-1.01 0.051,-1.059 1.041,-1.059 16.989,-0.002 33.977,-0.002 50.966,0 1.041,0 1.086,0.044 1.087,1.094 0.003,4.348 0.003,8.696 10e-4,13.043 -10e-4,1.215 -0.012,1.226 -1.204,1.226 z"
   id="path35" />&#10;				</g>&#10;				<g
   id="g49">&#10;					<g
   id="g37">&#10;						<rect
   x="668.54602"
   y="828.47803"
   style="fill:#606060"
   width="3.825"
   height="2.2950001"
   id="rect36" />&#10;					</g>&#10;					<g
   id="g38">&#10;						<rect
   x="664.72198"
   y="830.77301"
   style="fill:#606060"
   width="3.825"
   height="2.2950001"
   id="rect37" />&#10;					</g>&#10;					<g
   id="g39">&#10;						<rect
   x="668.54602"
   y="833.06799"
   style="fill:#606060"
   width="3.825"
   height="2.2950001"
   id="rect38" />&#10;					</g>&#10;					<g
   id="g40">&#10;						<rect
   x="664.72198"
   y="835.36298"
   style="fill:#606060"
   width="3.825"
   height="2.2950001"
   id="rect39" />&#10;					</g>&#10;					<g
   id="g41">&#10;						<rect
   x="668.54602"
   y="837.65802"
   style="fill:#606060"
   width="3.825"
   height="2.2950001"
   id="rect40" />&#10;					</g>&#10;					<g
   id="g42">&#10;						<rect
   x="664.72198"
   y="839.953"
   style="fill:#606060"
   width="3.825"
   height="2.2950001"
   id="rect41" />&#10;					</g>&#10;					<g
   id="g43">&#10;						<rect
   x="668.54602"
   y="842.24701"
   style="fill:#606060"
   width="3.825"
   height="2.2950001"
   id="rect42" />&#10;					</g>&#10;					<g
   id="g44">&#10;						<rect
   x="664.72198"
   y="844.54199"
   style="fill:#606060"
   width="3.825"
   height="2.2950001"
   id="rect43" />&#10;					</g>&#10;					<g
   id="g45">&#10;						<rect
   x="668.54602"
   y="846.83698"
   style="fill:#606060"
   width="3.825"
   height="2.2950001"
   id="rect44" />&#10;					</g>&#10;					<g
   id="g46">&#10;						<rect
   x="664.72198"
   y="849.13202"
   style="fill:#606060"
   width="3.825"
   height="2.2950001"
   id="rect45" />&#10;					</g>&#10;					<g
   id="g47">&#10;						<rect
   x="668.54602"
   y="851.427"
   style="fill:#606060"
   width="3.825"
   height="2.2950001"
   id="rect46" />&#10;					</g>&#10;					<g
   id="g48">&#10;						<rect
   x="664.72198"
   y="853.72198"
   style="fill:#606060"
   width="3.825"
   height="2.2950001"
   id="rect47" />&#10;					</g>&#10;				</g>&#10;			</g>&#10;			<g
   id="g51">&#10;				<path
   style="fill:#606060"
   d="m 364.231,859.493 c -0.013,-2.665 -2.087,-4.618 -4.766,-4.659 -2.011,-0.031 -1.81,0.261 -1.815,-1.887 -0.006,-2.389 -0.015,-4.778 0.006,-7.166 0.007,-0.824 -0.243,-1.505 -0.787,-2.125 -5.098,-5.81 -10.184,-11.63 -15.281,-17.441 -0.262,-0.299 -0.599,-0.532 -0.901,-0.796 -13.528,0 -27.055,0 -40.583,0 -1.729,0.639 -2.482,1.889 -2.478,3.72 0.021,8.159 0.009,16.318 0.008,24.478 0,1.21 -0.007,1.281 -1.197,1.201 -3.258,-0.221 -5.477,2.147 -5.436,5.426 0.096,7.568 0.028,15.137 0.031,22.706 0.001,3.44 1.887,5.32 5.333,5.331 1.267,0.004 1.268,0.004 1.268,1.306 0.001,4.831 -0.002,9.662 0.002,14.493 0.002,2.595 1.262,3.855 3.85,3.855 17.446,0.001 34.891,0.001 52.337,0 2.543,0 3.822,-1.268 3.824,-3.799 0.005,-4.912 10e-4,-9.823 0.003,-14.735 0,-1.115 0.004,-1.112 1.131,-1.121 0.589,-0.005 1.177,0.017 1.761,-0.127 2.169,-0.535 3.68,-2.273 3.689,-4.503 0.034,-8.053 0.039,-16.105 10e-4,-24.157 z m -61.939,-30.777 c 11.619,-10e-4 23.237,-10e-4 34.856,0 1.192,0 1.206,0.015 1.207,1.222 10e-4,4.884 -0.001,9.767 0.002,14.651 10e-4,1.765 0.543,2.305 2.307,2.306 4.159,0.003 8.318,0 12.477,0.003 0.997,10e-4 1.044,0.046 1.046,1.052 0.006,1.932 0.005,3.864 0,5.796 -0.003,1.038 -0.051,1.085 -1.098,1.085 -8.479,0.002 -16.958,10e-4 -25.438,10e-4 -8.452,0 -16.905,0 -25.357,0 -1.198,0 -1.202,-0.003 -1.202,-1.221 -10e-4,-7.889 -10e-4,-15.778 0,-23.667 0.001,-1.22 0.01,-1.228 1.2,-1.228 z m 50.693,74.929 c -8.454,10e-4 -16.908,10e-4 -25.362,10e-4 -8.427,0 -16.854,0.001 -25.281,0 -1.245,0 -1.249,-0.003 -1.249,-1.262 -0.001,-4.348 -0.003,-8.696 10e-4,-13.043 0.001,-1.01 0.051,-1.059 1.041,-1.059 16.989,-0.002 33.977,-0.002 50.966,0 1.041,0 1.086,0.044 1.087,1.094 0.003,4.348 0.003,8.696 0.001,13.043 -0.001,1.215 -0.012,1.226 -1.204,1.226 z"
   id="path50" />&#10;			</g>&#10;			<g
   id="g53">&#10;				<path
   style="fill:#ffffff"
   d="m 303.581,879.891 v -17.193 h 6.051 c 0.816,0 1.581,0.132 2.293,0.396 0.712,0.264 1.333,0.636 1.861,1.117 0.527,0.48 0.944,1.053 1.248,1.717 0.304,0.665 0.456,1.397 0.456,2.198 0,0.816 -0.152,1.557 -0.456,2.221 -0.304,0.664 -0.721,1.236 -1.248,1.717 -0.529,0.48 -1.149,0.852 -1.861,1.117 -0.713,0.264 -1.477,0.396 -2.293,0.396 h -2.809 v 6.315 h -3.242 z m 6.099,-9.388 c 0.848,0 1.489,-0.241 1.921,-0.721 0.432,-0.48 0.648,-1.032 0.648,-1.656 0,-0.304 -0.052,-0.601 -0.156,-0.889 -0.105,-0.288 -0.264,-0.54 -0.48,-0.756 -0.216,-0.217 -0.484,-0.388 -0.805,-0.516 -0.32,-0.129 -0.696,-0.193 -1.128,-0.193 h -2.857 v 4.731 z"
   id="path51" />&#10;				<path
   style="fill:#ffffff"
   d="m 317.796,862.699 h 3.77 l 6.916,11.526 h 0.191 l -0.191,-3.314 v -8.212 h 3.217 v 17.193 h -3.409 l -7.3,-12.174 h -0.191 l 0.191,3.314 v 8.86 h -3.193 v -17.193 z"
   id="path52" />&#10;				<path
   style="fill:#ffffff"
   d="m 343.08,870.454 h 8.429 c 0.048,0.193 0.087,0.425 0.12,0.697 0.031,0.272 0.048,0.544 0.048,0.816 0,1.104 -0.167,2.145 -0.504,3.121 -0.336,0.977 -0.865,1.849 -1.585,2.618 -0.768,0.817 -1.69,1.449 -2.761,1.897 -1.073,0.448 -2.298,0.672 -3.674,0.672 -1.249,0 -2.426,-0.224 -3.53,-0.672 -1.104,-0.447 -2.065,-1.072 -2.881,-1.873 -0.816,-0.8 -1.465,-1.749 -1.945,-2.845 -0.48,-1.097 -0.72,-2.293 -0.72,-3.59 0,-1.296 0.24,-2.493 0.72,-3.589 0.48,-1.096 1.129,-2.045 1.945,-2.845 0.816,-0.8 1.777,-1.425 2.881,-1.873 1.104,-0.448 2.281,-0.672 3.53,-0.672 1.392,0 2.637,0.24 3.734,0.72 1.097,0.48 2.036,1.144 2.821,1.993 l -2.232,2.185 c -0.562,-0.592 -1.185,-1.044 -1.874,-1.357 -0.689,-0.313 -1.513,-0.468 -2.473,-0.468 -0.786,0 -1.53,0.14 -2.234,0.421 -0.705,0.28 -1.321,0.676 -1.85,1.188 -0.527,0.512 -0.949,1.133 -1.259,1.861 -0.312,0.728 -0.469,1.541 -0.469,2.437 0,0.897 0.157,1.709 0.469,2.438 0.311,0.728 0.735,1.349 1.271,1.861 0.536,0.512 1.156,0.909 1.862,1.188 0.704,0.281 1.457,0.421 2.258,0.421 0.911,0 1.684,-0.132 2.317,-0.396 0.632,-0.264 1.171,-0.604 1.62,-1.021 0.321,-0.288 0.598,-0.652 0.829,-1.092 0.231,-0.44 0.412,-0.932 0.541,-1.477 h -5.404 z"
   id="path53" />&#10;			</g>&#10;			<g
   id="g54">&#10;				<path
   style="fill:#606060"
   d="m 443.437,859.493 c -0.013,-2.665 -2.087,-4.618 -4.766,-4.659 -2.011,-0.031 -1.81,0.261 -1.815,-1.887 -0.006,-2.389 -0.015,-4.778 0.006,-7.166 0.007,-0.824 -0.243,-1.505 -0.787,-2.125 -5.098,-5.81 -10.184,-11.63 -15.281,-17.441 -0.262,-0.299 -0.599,-0.532 -0.901,-0.796 -13.528,0 -27.055,0 -40.583,0 -1.729,0.639 -2.482,1.889 -2.478,3.72 0.021,8.159 0.009,16.318 0.008,24.478 0,1.21 -0.007,1.281 -1.197,1.201 -3.258,-0.221 -5.477,2.147 -5.436,5.426 0.096,7.568 0.028,15.137 0.031,22.706 10e-4,3.44 1.887,5.32 5.333,5.331 1.267,0.004 1.268,0.004 1.268,1.306 10e-4,4.831 -0.002,9.662 0.002,14.493 0.002,2.595 1.262,3.855 3.85,3.855 17.446,0.001 34.891,0.001 52.337,0 2.543,0 3.822,-1.268 3.824,-3.799 0.005,-4.912 0.001,-9.823 0.003,-14.735 0,-1.115 0.004,-1.112 1.131,-1.121 0.589,-0.005 1.177,0.017 1.761,-0.127 2.169,-0.535 3.68,-2.273 3.689,-4.503 0.034,-8.053 0.039,-16.105 0.001,-24.157 z m -61.939,-30.777 c 11.619,-10e-4 23.237,-10e-4 34.856,0 1.192,0 1.206,0.015 1.207,1.222 0.001,4.884 -10e-4,9.767 0.002,14.651 0.001,1.765 0.543,2.305 2.307,2.306 4.159,0.003 8.318,0 12.477,0.003 0.997,10e-4 1.044,0.046 1.046,1.052 0.006,1.932 0.005,3.864 0,5.796 -0.003,1.038 -0.051,1.085 -1.098,1.085 -8.479,0.002 -16.958,10e-4 -25.438,10e-4 -8.452,0 -16.905,0 -25.357,0 -1.198,0 -1.202,-0.003 -1.202,-1.221 -10e-4,-7.889 -10e-4,-15.778 0,-23.667 10e-4,-1.22 0.01,-1.228 1.2,-1.228 z m 50.694,74.929 c -8.454,10e-4 -16.908,10e-4 -25.362,10e-4 -8.427,0 -16.854,0.001 -25.281,0 -1.245,0 -1.249,-0.003 -1.249,-1.262 -0.001,-4.348 -0.002,-8.696 10e-4,-13.043 0.001,-1.01 0.051,-1.059 1.041,-1.059 16.989,-0.002 33.977,-0.002 50.966,0 1.041,0 1.086,0.044 1.087,1.094 0.003,4.348 0.003,8.696 0.001,13.043 -0.002,1.215 -0.012,1.226 -1.204,1.226 z"
   id="path54" />&#10;			</g>&#10;			<g
   id="g56">&#10;				<path
   style="fill:#ffffff"
   d="m 402.272,862.699 h 3.698 l 6.46,17.193 h -3.578 l -1.416,-4.106 h -6.628 l -1.417,4.106 h -3.578 z m 4.107,10.109 -1.537,-4.298 -0.625,-2.089 h -0.192 l -0.625,2.089 -1.537,4.298 z"
   id="path55" />&#10;				<path
   style="fill:#ffffff"
   d="m 415.815,866.541 c -0.273,0 -0.533,-0.052 -0.781,-0.156 -0.248,-0.104 -0.465,-0.248 -0.648,-0.432 -0.184,-0.184 -0.328,-0.396 -0.432,-0.636 -0.105,-0.241 -0.156,-0.504 -0.156,-0.793 0,-0.289 0.052,-0.552 0.156,-0.793 0.104,-0.24 0.248,-0.452 0.432,-0.636 0.184,-0.184 0.4,-0.328 0.648,-0.432 0.248,-0.104 0.508,-0.156 0.781,-0.156 0.56,0 1.041,0.196 1.441,0.588 0.4,0.393 0.601,0.869 0.601,1.429 0,0.56 -0.201,1.037 -0.601,1.428 -0.4,0.393 -0.881,0.589 -1.441,0.589 z m -1.56,13.35 v -11.766 h 3.145 v 11.766 z"
   id="path56" />&#10;			</g>&#10;			<g
   id="g57">&#10;				<path
   style="fill:#606060"
   d="m 524.043,859.493 c -0.013,-2.665 -2.087,-4.618 -4.766,-4.659 -2.011,-0.031 -1.81,0.261 -1.815,-1.887 -0.006,-2.389 -0.015,-4.778 0.006,-7.166 0.007,-0.824 -0.243,-1.505 -0.787,-2.125 -5.098,-5.81 -10.184,-11.63 -15.281,-17.441 -0.262,-0.299 -0.599,-0.532 -0.901,-0.796 -13.528,0 -27.055,0 -40.583,0 -1.729,0.639 -2.482,1.889 -2.478,3.72 0.021,8.159 0.009,16.318 0.008,24.478 0,1.21 -0.007,1.281 -1.197,1.201 -3.258,-0.221 -5.477,2.147 -5.436,5.426 0.096,7.568 0.028,15.137 0.031,22.706 0.001,3.44 1.887,5.32 5.333,5.331 1.267,0.004 1.268,0.004 1.268,1.306 0.001,4.831 -0.002,9.662 0.002,14.493 0.002,2.595 1.262,3.855 3.85,3.855 17.446,0.001 34.891,0.001 52.337,0 2.543,0 3.822,-1.268 3.824,-3.799 0.005,-4.912 10e-4,-9.823 0.003,-14.735 0,-1.115 0.004,-1.112 1.131,-1.121 0.589,-0.005 1.177,0.017 1.761,-0.127 2.169,-0.535 3.68,-2.273 3.689,-4.503 0.034,-8.053 0.039,-16.105 10e-4,-24.157 z m -61.939,-30.777 c 11.619,-10e-4 23.237,-10e-4 34.856,0 1.192,0 1.206,0.015 1.207,1.222 0.001,4.884 -10e-4,9.767 0.002,14.651 0.001,1.765 0.543,2.305 2.307,2.306 4.159,0.003 8.318,0 12.477,0.003 0.997,10e-4 1.044,0.046 1.046,1.052 0.006,1.932 0.005,3.864 0,5.796 -0.003,1.038 -0.051,1.085 -1.098,1.085 -8.479,0.002 -16.958,10e-4 -25.438,10e-4 -8.452,0 -16.905,0 -25.357,0 -1.198,0 -1.202,-0.003 -1.202,-1.221 -10e-4,-7.889 -10e-4,-15.778 0,-23.667 10e-4,-1.22 0.01,-1.228 1.2,-1.228 z m 50.694,74.929 c -8.454,10e-4 -16.908,10e-4 -25.362,10e-4 -8.427,0 -16.854,0.001 -25.281,0 -1.245,0 -1.249,-0.003 -1.249,-1.262 -0.001,-4.348 -0.002,-8.696 10e-4,-13.043 0.001,-1.01 0.051,-1.059 1.041,-1.059 16.989,-0.002 33.977,-0.002 50.966,0 1.041,0 1.086,0.044 1.087,1.094 0.003,4.348 0.003,8.696 10e-4,13.043 -0.002,1.215 -0.013,1.226 -1.204,1.226 z"
   id="path57" />&#10;			</g>&#10;			<g
   id="g60">&#10;				<path
   style="fill:#ffffff"
   d="m 470.308,880.275 c -0.737,0 -1.441,-0.104 -2.113,-0.312 -0.672,-0.208 -1.289,-0.52 -1.849,-0.936 -0.56,-0.416 -1.048,-0.925 -1.464,-1.525 -0.417,-0.601 -0.745,-1.301 -0.985,-2.101 l 3.049,-1.2 c 0.224,0.864 0.616,1.581 1.177,2.149 0.561,0.568 1.297,0.852 2.209,0.852 0.336,0 0.66,-0.044 0.973,-0.132 0.312,-0.087 0.592,-0.216 0.84,-0.384 0.248,-0.168 0.444,-0.38 0.589,-0.636 0.144,-0.256 0.216,-0.552 0.216,-0.888 0,-0.32 -0.056,-0.608 -0.168,-0.865 -0.112,-0.255 -0.3,-0.495 -0.564,-0.72 -0.264,-0.224 -0.609,-0.44 -1.033,-0.648 -0.424,-0.208 -0.948,-0.424 -1.572,-0.648 l -1.056,-0.384 c -0.465,-0.16 -0.933,-0.376 -1.405,-0.648 -0.472,-0.272 -0.9,-0.6 -1.284,-0.985 -0.385,-0.384 -0.701,-0.836 -0.949,-1.357 -0.249,-0.52 -0.372,-1.108 -0.372,-1.765 0,-0.672 0.132,-1.301 0.396,-1.885 0.264,-0.584 0.64,-1.096 1.129,-1.537 0.488,-0.44 1.072,-0.784 1.753,-1.032 0.681,-0.248 1.437,-0.372 2.269,-0.372 0.864,0 1.612,0.116 2.245,0.348 0.633,0.232 1.168,0.528 1.609,0.888 0.44,0.36 0.796,0.757 1.068,1.188 0.272,0.433 0.472,0.84 0.601,1.225 l -2.857,1.2 c -0.161,-0.48 -0.453,-0.913 -0.876,-1.297 -0.425,-0.384 -1.005,-0.576 -1.741,-0.576 -0.704,0 -1.289,0.164 -1.753,0.492 -0.465,0.329 -0.697,0.757 -0.697,1.285 0,0.512 0.224,0.949 0.672,1.309 0.448,0.36 1.161,0.708 2.137,1.044 l 1.081,0.36 c 0.688,0.241 1.316,0.517 1.885,0.828 0.568,0.312 1.056,0.684 1.465,1.117 0.408,0.433 0.72,0.925 0.936,1.477 0.217,0.552 0.324,1.189 0.324,1.909 0,0.897 -0.18,1.669 -0.54,2.317 -0.36,0.648 -0.82,1.181 -1.38,1.597 -0.561,0.416 -1.193,0.728 -1.897,0.936 -0.708,0.209 -1.396,0.312 -2.068,0.312 z"
   id="path58" />&#10;				<path
   style="fill:#ffffff"
   d="m 477.175,862.699 h 3.506 l 3.554,10.349 0.625,2.209 h 0.192 l 0.672,-2.209 3.698,-10.349 h 3.506 l -6.268,17.193 h -3.409 z"
   id="path59" />&#10;				<path
   style="fill:#ffffff"
   d="m 502.388,870.454 h 8.428 c 0.048,0.193 0.088,0.425 0.12,0.697 0.033,0.272 0.049,0.544 0.049,0.816 0,1.104 -0.169,2.145 -0.505,3.121 -0.336,0.977 -0.864,1.849 -1.585,2.618 -0.768,0.817 -1.688,1.449 -2.761,1.897 -1.073,0.448 -2.298,0.672 -3.674,0.672 -1.249,0 -2.425,-0.224 -3.529,-0.672 -1.105,-0.447 -2.066,-1.072 -2.882,-1.873 -0.816,-0.8 -1.465,-1.749 -1.945,-2.845 -0.48,-1.097 -0.72,-2.293 -0.72,-3.59 0,-1.296 0.241,-2.493 0.72,-3.589 0.48,-1.097 1.129,-2.045 1.945,-2.845 0.816,-0.8 1.777,-1.425 2.882,-1.873 1.104,-0.448 2.28,-0.672 3.529,-0.672 1.392,0 2.637,0.24 3.734,0.72 1.097,0.48 2.038,1.144 2.822,1.993 l -2.234,2.185 c -0.56,-0.592 -1.185,-1.044 -1.874,-1.357 -0.687,-0.312 -1.512,-0.468 -2.473,-0.468 -0.784,0 -1.528,0.14 -2.234,0.421 -0.704,0.28 -1.321,0.676 -1.848,1.188 -0.528,0.512 -0.949,1.133 -1.261,1.861 -0.312,0.728 -0.468,1.541 -0.468,2.437 0,0.897 0.156,1.709 0.468,2.438 0.312,0.728 0.737,1.349 1.273,1.861 0.536,0.512 1.156,0.909 1.86,1.188 0.705,0.281 1.457,0.421 2.258,0.421 0.913,0 1.685,-0.132 2.317,-0.396 0.632,-0.264 1.173,-0.604 1.621,-1.021 0.32,-0.288 0.596,-0.652 0.828,-1.092 0.233,-0.44 0.412,-0.932 0.541,-1.477 h -5.402 z"
   id="path60" />&#10;			</g>&#10;			<g
   id="g61">&#10;				<path
   style="fill:#606060"
   d="m 602.976,859.493 c -0.013,-2.665 -2.087,-4.618 -4.766,-4.659 -2.011,-0.031 -1.81,0.261 -1.815,-1.887 -0.006,-2.389 -0.015,-4.778 0.006,-7.166 0.007,-0.824 -0.243,-1.505 -0.787,-2.125 -5.098,-5.81 -10.184,-11.63 -15.281,-17.441 -0.262,-0.299 -0.599,-0.532 -0.901,-0.796 -13.528,0 -27.055,0 -40.583,0 -1.729,0.639 -2.482,1.889 -2.478,3.72 0.021,8.159 0.009,16.318 0.008,24.478 0,1.21 -0.007,1.281 -1.197,1.201 -3.258,-0.221 -5.477,2.147 -5.436,5.426 0.096,7.568 0.028,15.137 0.031,22.706 10e-4,3.44 1.887,5.32 5.333,5.331 1.267,0.004 1.268,0.004 1.268,1.306 10e-4,4.831 -0.002,9.662 0.002,14.493 0.002,2.595 1.262,3.855 3.85,3.855 17.446,0.001 34.891,0.001 52.337,0 2.543,0 3.822,-1.268 3.824,-3.799 0.005,-4.912 0.001,-9.823 0.003,-14.735 0,-1.115 0.005,-1.112 1.131,-1.121 0.589,-0.005 1.178,0.017 1.761,-0.127 2.169,-0.535 3.68,-2.273 3.689,-4.503 0.035,-8.053 0.04,-16.105 10e-4,-24.157 z m -61.939,-30.777 c 11.619,-10e-4 23.237,-10e-4 34.856,0 1.193,0 1.206,0.015 1.207,1.222 10e-4,4.884 -0.002,9.767 0.002,14.651 10e-4,1.765 0.543,2.305 2.307,2.306 4.159,0.003 8.318,0 12.477,0.003 0.997,10e-4 1.044,0.046 1.046,1.052 0.006,1.932 0.005,3.864 0,5.796 -0.003,1.038 -0.051,1.085 -1.098,1.085 -8.479,0.002 -16.958,10e-4 -25.438,10e-4 -8.452,0 -16.905,0 -25.357,0 -1.198,0 -1.202,-0.003 -1.202,-1.221 -10e-4,-7.889 -10e-4,-15.778 0,-23.667 10e-4,-1.22 0.01,-1.228 1.2,-1.228 z m 50.694,74.929 c -8.454,10e-4 -16.908,10e-4 -25.362,10e-4 -8.427,0 -16.854,0.001 -25.281,0 -1.245,0 -1.249,-0.003 -1.249,-1.262 -0.001,-4.348 -0.003,-8.696 10e-4,-13.043 10e-4,-1.01 0.051,-1.059 1.041,-1.059 16.989,-0.002 33.977,-0.002 50.966,0 1.041,0 1.086,0.044 1.087,1.094 0.003,4.348 0.003,8.696 10e-4,13.043 -10e-4,1.215 -0.012,1.226 -1.204,1.226 z"
   id="path61" />&#10;			</g>&#10;			<g
   id="g64">&#10;				<path
   style="fill:#ffffff"
   d="m 549.998,865.772 v 3.986 h 6.891 v 3.074 h -6.891 v 3.986 h 7.659 v 3.073 h -10.901 v -17.193 h 10.901 v 3.073 h -7.659 z"
   id="path62" />&#10;				<path
   style="fill:#ffffff"
   d="m 560.635,879.891 v -17.193 h 6.051 c 0.816,0 1.581,0.132 2.293,0.396 0.712,0.264 1.333,0.636 1.861,1.117 0.528,0.48 0.944,1.053 1.249,1.717 0.304,0.665 0.456,1.397 0.456,2.198 0,0.816 -0.152,1.557 -0.456,2.221 -0.305,0.664 -0.721,1.236 -1.249,1.717 -0.528,0.48 -1.149,0.852 -1.861,1.117 -0.713,0.264 -1.477,0.396 -2.293,0.396 h -2.809 v 6.315 h -3.242 z m 6.1,-9.388 c 0.848,0 1.489,-0.241 1.921,-0.721 0.432,-0.48 0.648,-1.032 0.648,-1.656 0,-0.304 -0.052,-0.601 -0.156,-0.889 -0.105,-0.288 -0.264,-0.54 -0.48,-0.756 -0.216,-0.217 -0.484,-0.388 -0.805,-0.516 -0.32,-0.129 -0.696,-0.193 -1.128,-0.193 h -2.857 v 4.731 z"
   id="path63" />&#10;				<path
   style="fill:#ffffff"
   d="m 580.109,880.275 c -0.737,0 -1.441,-0.104 -2.113,-0.312 -0.672,-0.208 -1.289,-0.52 -1.849,-0.936 -0.56,-0.416 -1.049,-0.925 -1.465,-1.525 -0.416,-0.601 -0.744,-1.301 -0.985,-2.101 l 3.049,-1.2 c 0.224,0.864 0.616,1.581 1.177,2.149 0.56,0.568 1.296,0.852 2.209,0.852 0.336,0 0.66,-0.044 0.973,-0.132 0.312,-0.087 0.592,-0.216 0.84,-0.384 0.248,-0.168 0.444,-0.38 0.588,-0.636 0.144,-0.256 0.217,-0.552 0.217,-0.888 0,-0.32 -0.057,-0.608 -0.168,-0.865 -0.112,-0.255 -0.3,-0.495 -0.565,-0.72 -0.264,-0.224 -0.608,-0.44 -1.032,-0.648 -0.424,-0.208 -0.949,-0.424 -1.573,-0.648 l -1.056,-0.384 c -0.465,-0.16 -0.932,-0.376 -1.404,-0.648 -0.473,-0.272 -0.901,-0.6 -1.285,-0.985 -0.384,-0.384 -0.701,-0.836 -0.949,-1.357 -0.248,-0.52 -0.372,-1.108 -0.372,-1.765 0,-0.672 0.132,-1.301 0.396,-1.885 0.264,-0.584 0.64,-1.096 1.129,-1.537 0.489,-0.44 1.073,-0.784 1.753,-1.032 0.68,-0.248 1.437,-0.372 2.269,-0.372 0.865,0 1.613,0.116 2.246,0.348 0.632,0.232 1.168,0.528 1.609,0.888 0.44,0.36 0.796,0.757 1.068,1.188 0.272,0.433 0.472,0.84 0.601,1.225 l -2.857,1.2 c -0.161,-0.48 -0.453,-0.913 -0.877,-1.297 -0.424,-0.384 -1.005,-0.576 -1.741,-0.576 -0.705,0 -1.289,0.164 -1.753,0.492 -0.465,0.329 -0.696,0.757 -0.696,1.285 0,0.512 0.224,0.949 0.672,1.309 0.448,0.36 1.16,0.708 2.137,1.044 l 1.08,0.36 c 0.689,0.241 1.317,0.517 1.885,0.828 0.568,0.312 1.056,0.684 1.465,1.117 0.408,0.433 0.72,0.925 0.936,1.477 0.216,0.552 0.324,1.189 0.324,1.909 0,0.897 -0.18,1.669 -0.54,2.317 -0.36,0.648 -0.821,1.181 -1.38,1.597 -0.561,0.416 -1.193,0.728 -1.897,0.936 -0.705,0.209 -1.393,0.312 -2.066,0.312 z"
   id="path64" />&#10;			</g>&#10;			<g
   id="g67">&#10;				<path
   style="fill:#ffffff"
   d="m 655.431,876.625 8.716,-10.854 h -8.332 v -3.073 h 12.103 v 3.266 l -8.621,10.854 h 8.716 v 3.073 h -12.582 z"
   id="path65" />&#10;				<path
   style="fill:#ffffff"
   d="m 670.702,862.699 h 3.242 v 17.193 h -3.242 z"
   id="path66" />&#10;				<path
   style="fill:#ffffff"
   d="m 677.402,879.891 v -17.193 h 6.051 c 0.817,0 1.581,0.132 2.293,0.396 0.712,0.264 1.333,0.636 1.861,1.117 0.528,0.481 0.944,1.053 1.249,1.717 0.304,0.665 0.456,1.397 0.456,2.198 0,0.816 -0.152,1.557 -0.456,2.221 -0.305,0.664 -0.721,1.236 -1.249,1.717 -0.528,0.481 -1.149,0.852 -1.861,1.117 -0.713,0.264 -1.477,0.396 -2.293,0.396 h -2.809 v 6.315 h -3.242 z m 6.099,-9.388 c 0.848,0 1.489,-0.241 1.921,-0.721 0.433,-0.48 0.648,-1.032 0.648,-1.656 0,-0.304 -0.052,-0.601 -0.156,-0.889 -0.105,-0.288 -0.264,-0.54 -0.48,-0.756 -0.216,-0.217 -0.484,-0.388 -0.805,-0.516 -0.32,-0.129 -0.696,-0.193 -1.128,-0.193 h -2.857 v 4.731 z"
   id="path67" />&#10;			</g>&#10;		</g>&#10;		<g
   style="opacity:0.61"
   id="g69">&#10;			<path
   style="fill:#606060"
   d="m 609.144,863.785 h 19.739 v 4.881 h -19.739 z m 0,8.416 h 19.739 v 4.884 h -19.739 z"
   id="path68" />&#10;		</g>&#10;	</g>&#10;	<g
   style="opacity:0.61"
   id="g91">&#10;		<path
   style="fill:#606060"
   d="m 297,963.076 h 3.498 c 2.75,0 4.603,1.768 4.603,4.297 0,2.529 -1.854,4.296 -4.603,4.296 H 297 Z m 3.449,7.807 c 2.283,0 3.756,-1.448 3.756,-3.51 0,-2.062 -1.473,-3.511 -3.756,-3.511 h -2.541 v 7.021 z"
   id="path70" />&#10;		<path
   style="fill:#606060"
   d="m 315.251,967.373 c 0,-2.504 1.915,-4.37 4.517,-4.37 2.577,0 4.505,1.853 4.505,4.37 0,2.516 -1.927,4.369 -4.505,4.369 -2.602,0 -4.517,-1.865 -4.517,-4.369 z m 8.114,0 c 0,-2.05 -1.534,-3.56 -3.596,-3.56 -2.075,0 -3.621,1.51 -3.621,3.56 0,2.049 1.546,3.559 3.621,3.559 2.062,0 3.596,-1.51 3.596,-3.559 z"
   id="path71" />&#10;		<path
   style="fill:#606060"
   d="m 346.724,963.076 -2.897,8.593 h -0.957 l -2.516,-7.328 -2.529,7.328 h -0.945 l -2.897,-8.593 h 0.933 l 2.479,7.389 2.566,-7.389 h 0.847 l 2.529,7.426 2.516,-7.426 z"
   id="path72" />&#10;		<path
   style="fill:#606060"
   d="m 364.435,963.076 v 8.593 h -0.749 l -5.524,-6.972 v 6.972 h -0.908 v -8.593 h 0.749 l 5.536,6.973 v -6.973 z"
   id="path73" />&#10;		<path
   style="fill:#606060"
   d="m 376.108,963.076 h 0.908 v 7.807 h 4.812 v 0.786 h -5.72 z"
   id="path74" />&#10;		<path
   style="fill:#606060"
   d="m 391.279,967.373 c 0,-2.504 1.915,-4.37 4.517,-4.37 2.577,0 4.505,1.853 4.505,4.37 0,2.516 -1.927,4.369 -4.505,4.369 -2.602,0 -4.517,-1.865 -4.517,-4.369 z m 8.113,0 c 0,-2.05 -1.534,-3.56 -3.596,-3.56 -2.075,0 -3.621,1.51 -3.621,3.56 0,2.049 1.546,3.559 3.621,3.559 2.062,0 3.596,-1.51 3.596,-3.559 z"
   id="path75" />&#10;		<path
   style="fill:#606060"
   d="m 416.478,969.374 h -4.787 l -1.031,2.295 h -0.945 l 3.928,-8.593 h 0.896 l 3.928,8.593 h -0.957 z m -0.331,-0.737 -2.062,-4.615 -2.062,4.615 z"
   id="path76" />&#10;		<path
   style="fill:#606060"
   d="m 428.765,963.076 h 3.498 c 2.75,0 4.603,1.768 4.603,4.297 0,2.529 -1.854,4.296 -4.603,4.296 h -3.498 z m 3.449,7.807 c 2.283,0 3.756,-1.448 3.756,-3.51 0,-2.062 -1.473,-3.511 -3.756,-3.511 h -2.541 v 7.021 z"
   id="path77" />&#10;		<path
   style="fill:#606060"
   d="m 465.256,969.374 h -4.787 l -1.031,2.295 h -0.945 l 3.928,-8.593 h 0.896 l 3.928,8.593 h -0.957 z m -0.331,-0.737 -2.062,-4.615 -2.062,4.615 z"
   id="path78" />&#10;		<path
   style="fill:#606060"
   d="m 477.543,963.076 h 0.908 v 7.807 h 4.812 v 0.786 h -5.72 z"
   id="path79" />&#10;		<path
   style="fill:#606060"
   d="m 493.647,963.076 h 0.908 v 7.807 h 4.812 v 0.786 h -5.72 z"
   id="path80" />&#10;		<path
   style="fill:#606060"
   d="m 522.749,963.862 v 3.376 h 4.443 v 0.786 h -4.443 v 3.646 h -0.909 v -8.593 h 5.891 v 0.786 h -4.982 z"
   id="path81" />&#10;		<path
   style="fill:#606060"
   d="m 538.485,963.076 h 0.909 v 8.593 h -0.909 z"
   id="path82" />&#10;		<path
   style="fill:#606060"
   d="m 551.067,963.076 h 0.909 v 7.807 h 4.811 v 0.786 h -5.72 z"
   id="path83" />&#10;		<path
   style="fill:#606060"
   d="m 573.246,970.883 v 0.786 h -6.076 v -8.593 h 5.891 v 0.786 h -4.983 v 3.056 h 4.443 v 0.774 h -4.443 v 3.191 z"
   id="path84" />&#10;		<path
   style="fill:#606060"
   d="m 597.255,963.862 v 3.376 h 4.443 v 0.786 h -4.443 v 3.646 h -0.909 v -8.593 h 5.891 v 0.786 h -4.982 z"
   id="path85" />&#10;		<path
   style="fill:#606060"
   d="m 612.119,967.373 c 0,-2.504 1.915,-4.37 4.517,-4.37 2.577,0 4.505,1.853 4.505,4.37 0,2.516 -1.927,4.369 -4.505,4.369 -2.602,0 -4.517,-1.865 -4.517,-4.369 z m 8.113,0 c 0,-2.05 -1.534,-3.56 -3.596,-3.56 -2.075,0 -3.622,1.51 -3.622,3.56 0,2.049 1.547,3.559 3.622,3.559 2.062,0 3.596,-1.51 3.596,-3.559 z"
   id="path86" />&#10;		<path
   style="fill:#606060"
   d="m 637.919,971.669 -1.963,-2.762 c -0.222,0.024 -0.442,0.037 -0.688,0.037 h -2.307 v 2.725 h -0.909 v -8.593 h 3.216 c 2.185,0 3.511,1.105 3.511,2.946 0,1.351 -0.712,2.295 -1.964,2.7 l 2.099,2.946 h -0.995 z m -0.048,-5.647 c 0,-1.375 -0.909,-2.161 -2.627,-2.161 h -2.283 v 4.309 h 2.283 c 1.718,0 2.627,-0.797 2.627,-2.148 z"
   id="path87" />&#10;		<path
   style="fill:#606060"
   d="m 658.724,963.076 v 8.593 h -0.871 v -6.874 l -3.376,5.782 h -0.429 l -3.376,-5.745 v 6.837 H 649.8 v -8.593 h 0.749 l 3.732,6.371 3.695,-6.371 z"
   id="path88" />&#10;		<path
   style="fill:#606060"
   d="m 675.787,969.374 h -4.788 l -1.031,2.295 h -0.946 l 3.928,-8.593 h 0.896 l 3.928,8.593 h -0.957 z m -0.332,-0.737 -2.062,-4.615 -2.062,4.615 z"
   id="path89" />&#10;		<path
   style="fill:#606060"
   d="m 689.312,963.862 h -3.02 v -0.786 h 6.948 v 0.786 h -3.02 v 7.807 h -0.908 z"
   id="path90" />&#10;		<path
   style="fill:#606060"
   d="m 702.605,970.626 0.356,-0.7 c 0.614,0.601 1.706,1.043 2.835,1.043 1.608,0 2.308,-0.675 2.308,-1.522 0,-2.357 -5.29,-0.908 -5.29,-4.087 0,-1.265 0.982,-2.357 3.167,-2.357 0.97,0 1.976,0.282 2.664,0.761 l -0.307,0.724 c -0.737,-0.479 -1.596,-0.712 -2.357,-0.712 -1.571,0 -2.271,0.7 -2.271,1.559 0,2.357 5.29,0.933 5.29,4.063 0,1.265 -1.006,2.344 -3.204,2.344 -1.288,0 -2.553,-0.454 -3.191,-1.116 z"
   id="path91" />&#10;	</g>&#10;</g>&#10;<g
   id="g92"
   transform="translate(-332.357,-347.59)">&#10;</g>&#10;<g
   id="g112"
   transform="translate(-332.357,-347.59)">&#10;	&#10;	<g
   id="g111">&#10;		<g
   id="g108">&#10;			<path
   style="fill:none"
   d="m 580.301,572.263 c -1.115,-1.111 -2.441,-2.012 -3.961,-2.678 -1.487,-0.652 -3.148,-0.984 -4.923,-0.984 -1.68,0 -3.29,0.331 -4.777,0.984 -1.519,0.667 -2.853,1.567 -3.961,2.678 -1.115,1.115 -2.015,2.441 -2.678,3.957 -0.656,1.494 -0.991,3.101 -0.991,4.781 0,1.684 0.335,3.29 0.991,4.781 0.663,1.516 1.563,2.849 2.678,3.961 1.112,1.119 2.449,2.019 3.954,2.678 3.068,1.344 6.803,1.275 9.707,0 1.512,-0.66 2.846,-1.56 3.961,-2.678 1.104,-1.104 1.971,-2.423 2.591,-3.921 0.619,-1.498 0.933,-3.123 0.933,-4.821 0,-1.694 -0.313,-3.312 -0.933,-4.817 -0.62,-1.498 -1.487,-2.817 -2.591,-3.921 z"
   id="path92" />&#10;			<path
   style="fill:none"
   d="m 602.372,586.886 c 0.718,1.312 1.64,2.456 2.751,3.4 1.119,0.958 2.398,1.727 3.801,2.292 1.366,0.55 2.849,0.831 4.405,0.831 2.682,0 4.971,-0.685 6.996,-2.095 2.048,-1.418 3.506,-3.269 4.471,-5.659 l 0.437,-1.071 h -23.842 c 0.259,0.808 0.584,1.576 0.981,2.302 z"
   id="path93" />&#10;			<path
   style="fill:none"
   d="m 360.663,572.263 c -1.115,-1.111 -2.445,-2.012 -3.965,-2.678 -1.487,-0.652 -3.097,-0.984 -4.777,-0.984 -1.687,0 -3.294,0.331 -4.788,0.984 -1.512,0.667 -2.842,1.567 -3.954,2.678 -1.115,1.115 -2.015,2.445 -2.678,3.957 -0.656,1.494 -0.984,3.101 -0.984,4.781 0,1.684 0.328,3.294 0.984,4.781 0.663,1.516 1.563,2.846 2.678,3.961 1.112,1.119 2.449,2.019 3.954,2.678 2.988,1.312 6.585,1.312 9.565,0 1.512,-0.66 2.842,-1.56 3.965,-2.678 1.111,-1.112 2.008,-2.445 2.675,-3.961 0.656,-1.491 0.987,-3.097 0.987,-4.781 0,-1.68 -0.331,-3.287 -0.987,-4.781 -0.668,-1.516 -1.564,-2.842 -2.675,-3.957 z"
   id="path94" />&#10;			<path
   style="fill:none"
   d="m 404.783,575.145 c -0.722,-1.334 -1.64,-2.489 -2.751,-3.425 -1.126,-0.958 -2.412,-1.727 -3.819,-2.288 -2.824,-1.122 -6.1,-1.09 -8.789,-0.004 -1.388,0.558 -2.671,1.33 -3.801,2.292 -1.104,0.94 -2.029,2.091 -2.744,3.425 -0.394,0.725 -0.71,1.49 -0.969,2.281 h 23.842 c -0.251,-0.791 -0.576,-1.556 -0.969,-2.281 z"
   id="path95" />&#10;			<path
   style="fill:none"
   d="m 382.879,586.886 c 0.71,1.312 1.632,2.456 2.744,3.4 1.126,0.958 2.405,1.731 3.801,2.292 1.366,0.55 2.85,0.831 4.409,0.831 2.678,0 4.967,-0.685 6.993,-2.095 1.68,-1.159 2.94,-2.631 3.877,-4.424 h -1.206 v -2.306 h -21.605 c 0.259,0.808 0.587,1.576 0.987,2.302 z"
   id="path96" />&#10;			<path
   style="fill:none"
   d="m 621.539,571.72 c -1.126,-0.958 -2.419,-1.727 -3.826,-2.288 -2.831,-1.122 -6.107,-1.086 -8.782,-0.004 -1.403,0.561 -2.678,1.33 -3.808,2.292 -1.104,0.937 -2.029,2.091 -2.744,3.425 -0.394,0.725 -0.718,1.49 -0.969,2.281 h 23.842 c -0.259,-0.791 -0.576,-1.556 -0.969,-2.281 -0.722,-1.337 -1.647,-2.489 -2.744,-3.425 z"
   id="path97" />&#10;			<path
   d="m 365.8,567.117 c -1.742,-1.742 -3.833,-3.137 -6.216,-4.15 -2.39,-1.013 -4.974,-1.527 -7.663,-1.527 -3.123,0 -6.103,0.725 -8.858,2.157 -1.286,0.667 -2.471,1.44 -3.546,2.314 v -10.863 h -7.16 V 581 c 0,2.747 0.514,5.338 1.531,7.71 1.009,2.361 2.409,4.435 4.147,6.176 1.738,1.738 3.822,3.141 6.173,4.147 2.369,1.013 4.967,1.531 7.714,1.531 2.689,0 5.273,-0.51 7.663,-1.523 2.387,-1.013 4.475,-2.412 6.216,-4.154 1.742,-1.742 3.141,-3.819 4.15,-6.176 1.01,-2.372 1.531,-4.963 1.531,-7.71 0,-2.693 -0.514,-5.273 -1.523,-7.659 -1.014,-2.38 -2.409,-4.472 -4.159,-6.225 z m -2.463,18.665 c -0.667,1.516 -1.563,2.849 -2.675,3.961 -1.122,1.119 -2.452,2.019 -3.965,2.678 -2.981,1.312 -6.577,1.312 -9.565,0 -1.505,-0.66 -2.842,-1.56 -3.954,-2.678 -1.115,-1.115 -2.015,-2.445 -2.678,-3.961 -0.656,-1.487 -0.984,-3.097 -0.984,-4.781 0,-1.68 0.328,-3.287 0.984,-4.781 0.663,-1.512 1.563,-2.843 2.678,-3.957 1.112,-1.111 2.441,-2.012 3.954,-2.678 1.494,-0.652 3.101,-0.984 4.788,-0.984 1.68,0 3.29,0.331 4.777,0.984 1.519,0.667 2.85,1.567 3.965,2.678 1.111,1.115 2.008,2.441 2.675,3.957 0.656,1.494 0.987,3.101 0.987,4.781 10e-4,1.683 -0.331,3.29 -0.987,4.781 z"
   id="path98" />&#10;			<path
   d="m 400.826,591.313 c -2.026,1.41 -4.315,2.095 -6.993,2.095 -1.559,0 -3.043,-0.281 -4.409,-0.831 -1.396,-0.561 -2.675,-1.334 -3.801,-2.292 -1.111,-0.944 -2.033,-2.088 -2.744,-3.4 -0.401,-0.725 -0.729,-1.494 -0.988,-2.303 h 21.605 2.234 7.652 L 413.393,581 c 0,-2.693 -0.514,-5.269 -1.527,-7.659 -1.009,-2.376 -2.405,-4.471 -4.157,-6.224 -1.746,-1.746 -3.837,-3.141 -6.213,-4.15 -4.828,-2.048 -10.676,-2.012 -15.377,0.004 -2.354,1.013 -4.428,2.409 -6.173,4.147 -1.746,1.745 -3.141,3.841 -4.147,6.22 -1.016,2.394 -1.53,4.97 -1.53,7.663 0,2.747 0.514,5.338 1.53,7.71 1.009,2.361 2.405,4.435 4.147,6.173 1.738,1.742 3.819,3.145 6.173,4.15 2.376,1.013 4.966,1.531 7.714,1.531 2.139,0 4.231,-0.357 6.209,-1.064 1.96,-0.692 3.771,-1.64 5.397,-2.831 1.629,-1.188 3.072,-2.631 4.303,-4.3 1.221,-1.662 2.175,-3.502 2.842,-5.455 l 0.011,-0.026 h -7.893 c -0.936,1.793 -2.197,3.265 -3.876,4.424 z m -17.947,-16.168 c 0.714,-1.334 1.64,-2.485 2.744,-3.425 1.13,-0.962 2.412,-1.734 3.801,-2.292 2.689,-1.086 5.965,-1.119 8.789,0.004 1.406,0.561 2.693,1.33 3.819,2.288 1.112,0.937 2.029,2.091 2.751,3.425 0.394,0.725 0.718,1.49 0.969,2.281 H 381.91 c 0.259,-0.791 0.576,-1.556 0.969,-2.281 z"
   id="path99" />&#10;			<path
   d="m 449.478,567.263 c -1.782,-1.786 -3.862,-3.214 -6.184,-4.249 -2.357,-1.042 -4.897,-1.574 -7.55,-1.574 -3.32,0 -6.362,0.732 -9.026,2.172 -1.221,0.653 -2.347,1.41 -3.381,2.263 v -10.826 h -7.157 v 45.516 h 7.157 v -19.564 c 0,-1.684 0.331,-3.29 0.987,-4.781 0.66,-1.509 1.556,-2.839 2.682,-3.957 1.107,-1.111 2.438,-2.012 3.95,-2.678 2.981,-1.304 6.581,-1.304 9.565,0 1.52,0.667 2.846,1.567 3.961,2.682 1.107,1.104 2.007,2.438 2.675,3.954 0.656,1.494 0.987,3.101 0.987,4.781 v 19.564 h 7.16 v -19.564 c 0,-2.653 -0.528,-5.193 -1.574,-7.55 -1.041,-2.33 -2.47,-4.411 -4.252,-6.189 z"
   id="path100" />&#10;			<path
   d="m 491.372,567.099 c -1.782,-1.731 -3.863,-3.119 -6.184,-4.128 -4.777,-2.066 -10.582,-1.997 -15.25,0 -2.35,1.009 -4.427,2.409 -6.173,4.147 -1.746,1.745 -3.141,3.841 -4.147,6.22 -1.017,2.394 -1.531,4.97 -1.531,7.663 v 19.564 h 7.16 v -19.564 c 0,-1.68 0.332,-3.287 0.984,-4.781 0.663,-1.512 1.563,-2.843 2.678,-3.957 1.115,-1.111 2.441,-2.012 3.954,-2.678 2.992,-1.304 6.584,-1.304 9.569,0 1.516,0.667 2.846,1.567 3.961,2.678 1.115,1.115 2.008,2.441 2.675,3.957 0.656,1.494 0.987,3.101 0.987,4.781 v 1.807 h 7.157 v -1.807 c 0,-2.7 -0.525,-5.284 -1.567,-7.678 -1.041,-2.383 -2.473,-4.475 -4.273,-6.224 z"
   id="path101" />&#10;			<path
   d="m 543.246,567.263 c -1.782,-1.786 -3.863,-3.214 -6.191,-4.249 -4.781,-2.124 -10.6,-2.055 -15.271,-0.004 -2.358,1.038 -4.442,2.474 -6.18,4.271 -1.731,1.782 -3.116,3.859 -4.128,6.184 -1.017,2.35 -1.531,4.883 -1.531,7.535 v 19.564 h 7.16 V 581 c 0,-1.68 0.332,-3.287 0.98,-4.781 0.667,-1.512 1.567,-2.843 2.682,-3.957 1.108,-1.111 2.441,-2.012 3.957,-2.678 2.988,-1.304 6.581,-1.304 9.565,0 1.516,0.667 2.846,1.567 3.961,2.678 1.108,1.115 2.008,2.441 2.675,3.957 0.656,1.494 0.98,3.101 0.98,4.781 v 19.564 h 7.164 V 581 c 0,-2.656 -0.532,-5.196 -1.57,-7.55 -1.042,-2.328 -2.471,-4.405 -4.253,-6.187 z"
   id="path102" />&#10;			<path
   d="m 585.3,567.117 c -1.745,-1.746 -3.833,-3.141 -6.216,-4.15 -4.748,-2.012 -10.461,-2.048 -15.206,0.007 -2.314,1.01 -4.398,2.394 -6.184,4.129 -1.797,1.749 -3.236,3.841 -4.271,6.22 -1.038,2.394 -1.567,4.974 -1.567,7.678 0,2.751 0.528,5.353 1.574,7.725 1.035,2.358 2.467,4.438 4.263,6.18 1.782,1.727 3.862,3.123 6.184,4.128 2.35,1.013 4.887,1.531 7.539,1.531 3.323,0 6.362,-0.729 9.026,-2.164 1.217,-0.656 2.347,-1.418 3.381,-2.27 v 2.634 c 0,1.698 -0.313,3.316 -0.933,4.818 -0.619,1.501 -1.487,2.82 -2.591,3.92 -1.115,1.115 -2.441,2.019 -3.961,2.682 -2.904,1.268 -6.643,1.341 -9.7,0 -1.519,-0.663 -2.853,-1.567 -3.961,-2.682 -1.115,-1.107 -2.015,-2.441 -2.678,-3.957 -0.656,-1.494 -0.991,-3.104 -0.991,-4.781 v -1.804 h -7.153 v 1.804 c 0,2.66 0.528,5.204 1.574,7.55 1.035,2.325 2.463,4.402 4.245,6.194 1.775,1.771 3.862,3.2 6.191,4.242 2.357,1.049 4.897,1.574 7.55,1.574 2.693,0 5.276,-0.525 7.685,-1.567 2.383,-1.042 4.475,-2.478 6.22,-4.271 1.734,-1.793 3.123,-3.87 4.121,-6.187 1.016,-2.347 1.538,-4.883 1.538,-7.536 V 581 c 0,-2.693 -0.514,-5.269 -1.531,-7.659 -1.003,-2.375 -2.399,-4.471 -4.148,-6.224 z m -2.408,18.705 c -0.619,1.498 -1.487,2.817 -2.591,3.921 -1.115,1.119 -2.449,2.019 -3.961,2.678 -2.904,1.275 -6.639,1.344 -9.707,0 -1.505,-0.66 -2.842,-1.56 -3.954,-2.678 -1.115,-1.112 -2.015,-2.445 -2.678,-3.961 -0.656,-1.491 -0.991,-3.097 -0.991,-4.781 0,-1.68 0.335,-3.287 0.991,-4.781 0.663,-1.516 1.563,-2.843 2.678,-3.957 1.108,-1.111 2.441,-2.012 3.961,-2.678 1.487,-0.652 3.097,-0.984 4.777,-0.984 1.775,0 3.436,0.331 4.923,0.984 1.52,0.667 2.846,1.567 3.961,2.678 1.104,1.104 1.971,2.423 2.591,3.921 0.619,1.505 0.933,3.123 0.933,4.817 0,1.698 -0.314,3.323 -0.933,4.821 z"
   id="path103" />&#10;			<path
   d="m 673.234,573.323 c -1.038,-2.387 -2.478,-4.478 -4.274,-6.224 -1.782,-1.731 -3.862,-3.119 -6.184,-4.128 -4.777,-2.066 -10.582,-1.997 -15.242,0 -2.357,1.009 -4.435,2.409 -6.18,4.147 -1.745,1.745 -3.141,3.841 -4.15,6.22 -1.009,2.39 -1.523,4.97 -1.523,7.663 v 19.564 h 7.156 v -19.564 c 0,-1.684 0.332,-3.29 0.988,-4.781 0.659,-1.509 1.556,-2.839 2.675,-3.957 1.115,-1.111 2.445,-2.012 3.961,-2.678 2.977,-1.304 6.577,-1.304 9.562,0 1.519,0.667 2.846,1.567 3.961,2.682 1.108,1.104 2.008,2.438 2.678,3.954 0.652,1.494 0.977,3.101 0.977,4.781 v 1.807 h 7.168 v -1.807 c -0.002,-2.694 -0.531,-5.281 -1.573,-7.679 z"
   id="path104" />&#10;			<path
   style="fill:none"
   d="m 602.372,586.886 c 0.718,1.312 1.64,2.456 2.751,3.4 1.119,0.958 2.398,1.727 3.801,2.292 1.366,0.55 2.849,0.831 4.405,0.831 2.682,0 4.971,-0.685 6.996,-2.095 1.673,-1.159 2.934,-2.631 3.877,-4.424 h -0.809 v -2.306 h -22.002 c 0.259,0.808 0.584,1.576 0.981,2.302 z"
   id="path105" />&#10;			<path
   style="fill:none"
   d="m 624.283,575.145 c -0.722,-1.337 -1.647,-2.489 -2.744,-3.425 -1.126,-0.958 -2.419,-1.727 -3.826,-2.288 -2.831,-1.122 -6.107,-1.086 -8.782,-0.004 -1.403,0.561 -2.678,1.33 -3.808,2.292 -1.104,0.937 -2.029,2.091 -2.744,3.425 -0.394,0.725 -0.718,1.49 -0.969,2.281 h 23.842 c -0.259,-0.791 -0.576,-1.556 -0.969,-2.281 z"
   id="path106" />&#10;			<path
   d="m 624.202,586.889 c -0.944,1.793 -2.204,3.265 -3.877,4.424 -2.026,1.41 -4.314,2.095 -6.996,2.095 -1.556,0 -3.039,-0.281 -4.405,-0.831 -1.403,-0.565 -2.682,-1.334 -3.801,-2.292 -1.111,-0.944 -2.033,-2.088 -2.751,-3.4 -0.397,-0.725 -0.722,-1.494 -0.98,-2.303 h 22.002 1.84 0.401 7.248 L 632.894,581 c 0,-2.693 -0.514,-5.269 -1.531,-7.663 -1.006,-2.376 -2.401,-4.468 -4.154,-6.22 -1.746,-1.746 -3.837,-3.141 -6.213,-4.15 -4.828,-2.048 -10.676,-2.012 -15.377,0.004 -2.354,1.013 -4.427,2.409 -6.173,4.147 -1.745,1.745 -3.141,3.841 -4.154,6.22 -1.009,2.39 -1.523,4.97 -1.523,7.663 0,2.747 0.514,5.338 1.531,7.71 1.009,2.361 2.405,4.435 4.147,6.173 1.738,1.742 3.815,3.145 6.173,4.15 2.376,1.013 4.967,1.531 7.71,1.531 2.143,0 4.234,-0.357 6.213,-1.064 1.953,-0.685 3.775,-1.64 5.404,-2.835 1.629,-1.191 3.072,-2.634 4.293,-4.292 1.217,-1.662 2.172,-3.498 2.846,-5.459 l 0.007,-0.026 h -7.485 z m -21.823,-11.744 c 0.714,-1.334 1.64,-2.489 2.744,-3.425 1.129,-0.962 2.405,-1.731 3.808,-2.292 2.675,-1.082 5.95,-1.119 8.782,0.004 1.407,0.561 2.7,1.33 3.826,2.288 1.097,0.937 2.022,2.088 2.744,3.425 0.393,0.725 0.71,1.49 0.969,2.281 H 601.41 c 0.251,-0.791 0.576,-1.556 0.969,-2.281 z"
   id="path107" />&#10;			<rect
   x="500.00101"
   y="561.448"
   width="7.1599998"
   height="39.117001"
   id="rect107" />&#10;			<path
   d="m 507.161,551.893 c 0,1.975 -1.607,3.578 -3.585,3.578 -1.972,0 -3.575,-1.603 -3.575,-3.578 0,-1.979 1.603,-3.578 3.575,-3.578 1.978,0 3.585,1.6 3.585,3.578 z"
   id="path108" />&#10;		</g>&#10;		<path
   d="m 474.876,427.389 -28.251,41.085 c 0,0 18.941,-0.966 33.706,-15.727 14.765,-14.763 2.248,-25.358 -5.455,-25.358 z"
   id="path109" />&#10;		<path
   d="m 444.384,476.498 c 0,0 -3.859,23.109 18.934,23.109 22.789,0 80.1,-58.305 53.467,-84.935 0,0 -15.272,-6.993 -32.871,10.602 0,0 -6.355,1.292 -2.988,-4.141 3.363,-5.435 29.038,-29.302 53.944,-4.4 0,0 16.824,22.288 -19.761,58.878 -36.588,36.586 -53.496,37.195 -66.694,23.997 C 435.213,486.41 440.883,476 440.883,476 c 0,0 2.23,-4.489 3.501,0.498 z"
   id="path110" />&#10;		<path
   d="m 627.708,504.046 -0.131,-0.212 c -0.485,-0.765 -1.028,-1.494 -1.622,-2.175 l -108.5,-146.34 c -3.166,-4.841 -8.49,-7.729 -14.259,-7.729 -5.717,0 -10.997,2.835 -14.167,7.599 L 381.921,501.808 c -0.554,0.656 -1.075,1.363 -1.534,2.11 l -0.08,0.128 c -1.629,2.675 -2.492,5.735 -2.492,8.844 0,7.47 5.003,14.178 12.167,16.317 3.003,0.893 6.166,0.951 9.215,0.142 l 213.958,0.569 h 0.007 c 9.394,0 17.039,-7.638 17.039,-17.028 -10e-4,-3.109 -0.864,-6.17 -2.493,-8.844 z m -14.539,20.118 -214.351,-0.576 h -0.416 l -0.397,0.116 c -2.121,0.616 -4.3,0.601 -6.384,-0.018 -4.737,-1.414 -8.05,-5.852 -8.05,-10.797 0,-2 0.543,-3.972 1.567,-5.714 l 0.091,-0.142 c 0.331,-0.547 0.71,-1.068 1.122,-1.541 L 492.756,359.841 h 0.116 l 0.849,-1.317 c 2.096,-3.241 5.637,-5.178 9.474,-5.178 3.841,0 7.379,1.937 9.467,5.178 l 108.742,146.666 0.168,0.204 c 0.452,0.503 0.856,1.057 1.21,1.64 l 0.051,0.08 c 1.053,1.756 1.61,3.746 1.61,5.776 0,6.212 -5.058,11.27 -11.274,11.274 z"
   id="path111" />&#10;	</g>&#10;</g>&#10;</svg>
