<?xml version="1.0" encoding="utf-8"?>
<!-- Svg Vector Icons : http://www.onlinewebfonts.com/icon -->
<!DOCTYPE svg PUBLIC "-//W3C//DTD SVG 1.1//EN" "http://www.w3.org/Graphics/SVG/1.1/DTD/svg11.dtd">
<svg version="1.1" xmlns="http://www.w3.org/2000/svg" xmlns:xlink="http://www.w3.org/1999/xlink" x="0px" y="0px" viewBox="0 0 256 256" enable-background="new 0 0 256 256" xml:space="preserve">
<metadata> Svg Vector Icons : http://www.onlinewebfonts.com/icon </metadata>
<g><g><g><path fill="#000000" d="M116.8,13.3c-14.4,1.4-29.4,5.8-41.8,12.1c-58,29.5-81.5,99.4-52.9,157.4c6.5,13.1,13.3,22.5,23.9,32.8C58,227.1,70.3,235.1,85.6,241c5.7,2.2,5.3,2.3,6.8-0.6c1.9-3.5,5.7-8.6,9.1-12.1c5.7-5.9,12.4-10,19.2-11.7c3.3-0.8,11-0.8,14.3,0c3.1,0.8,9.4,3.6,12.2,5.6c5.4,3.7,12,11.2,15.7,17.8c0.9,1.7,1.9,3,2.2,3c1.1,0,11.4-4.4,16.4-6.9c11.2-5.7,19.4-11.6,28.6-20.5c10.7-10.3,17.5-19.7,23.9-32.8c5.8-11.8,8.9-21.6,10.9-34.6c1.2-7.8,1.4-25,0.5-31.8c-3.9-27.4-15.1-50.2-33.8-68.9c-18.3-18.2-40.6-29.4-66.9-33.5C139,13.1,122.7,12.6,116.8,13.3z M135.1,39.6c3.6,1.7,6.6,4.5,8.4,8.2c1.4,2.8,1.5,3.4,1.5,7.7c0,4.2-0.1,4.9-1.3,7.2c-1.7,3.3-4.8,6.5-8.1,8.1c-2.4,1.2-3,1.3-7.4,1.3c-4.4,0-5.1-0.1-7.4-1.3c-3.4-1.8-6.2-4.6-8-7.9c-1.4-2.6-1.5-3-1.5-7.6c0-4.4,0.1-5.1,1.2-7.2c2.4-4.4,5-6.9,9.5-8.8C125.7,37.7,131.3,37.9,135.1,39.6z M83.7,61.7c3.5,1.9,6.2,4.8,7.8,8.3c1.1,2.3,1.2,3.2,1.2,7c0,4-0.1,4.7-1.5,7.4c-1.8,3.6-4.7,6.5-8.4,8.2c-2.3,1.1-3.2,1.2-7,1.2s-4.8-0.2-7-1.2c-3.5-1.6-6.8-4.8-8.5-8.1c-1.2-2.4-1.3-3.1-1.3-7.5c0-5.8,0.8-7.9,4.2-11.5c4.1-4.3,7.2-5.6,13.3-5.4C80.4,60.1,81.1,60.3,83.7,61.7z M187.7,61.4c3.2,1.6,6.6,4.9,8.2,8.2c1.1,2.3,1.2,3,1.2,7.4c0,4-0.2,5.2-1,7.1c-1.5,3.2-5.2,6.9-8.6,8.4c-2.5,1.2-3.4,1.3-7.2,1.3c-3.8,0-4.8-0.2-7-1.2c-3.6-1.7-6.6-4.5-8.4-8.2c-1.3-2.8-1.5-3.4-1.5-7.4c0-3.8,0.2-4.8,1.2-7c2.1-4.5,5.6-7.8,10.2-9.4C178,59.4,184.4,59.8,187.7,61.4z M61.3,113.5c3.6,1.7,6.6,4.5,8.4,8.2c1.4,2.8,1.5,3.4,1.5,7.7c0,4.2-0.1,4.9-1.3,7.2c-1.7,3.3-4.8,6.5-8.1,8.1c-2.4,1.2-3,1.3-7.4,1.3c-4.4,0-5.1-0.1-7.4-1.3c-3.3-1.6-6.4-4.8-8.1-8.1c-1.2-2.3-1.3-3-1.3-7.4c0-4.4,0.1-5.1,1.2-7.2c2.4-4.4,5-6.9,9.6-8.8C51.9,111.5,57.5,111.7,61.3,113.5z M208.9,113.5c3.6,1.7,6.6,4.5,8.4,8.2c1.4,2.8,1.5,3.4,1.5,7.7c0,4.2-0.1,4.9-1.3,7.2c-1.7,3.3-4.8,6.5-8.1,8.1c-2.4,1.2-3,1.3-7.4,1.3s-5.1-0.1-7.4-1.3c-3.3-1.6-6.4-4.8-8.1-8.1c-1.2-2.3-1.3-3-1.3-7.4c0-4.4,0.1-5.1,1.2-7.2c2.4-4.4,5-6.9,9.6-8.8C199.5,111.5,205.2,111.7,208.9,113.5z"/></g></g></g>
</svg>