<?xml version="1.0" encoding="utf-8"?>
<!-- Svg Vector Icons : http://www.onlinewebfonts.com/icon -->
<!DOCTYPE svg PUBLIC "-//W3C//DTD SVG 1.1//EN" "http://www.w3.org/Graphics/SVG/1.1/DTD/svg11.dtd">
<svg version="1.1" xmlns="http://www.w3.org/2000/svg" xmlns:xlink="http://www.w3.org/1999/xlink" x="0px" y="0px" viewBox="0 0 256 256" enable-background="new 0 0 256 256" xml:space="preserve">
<metadata> Svg Vector Icons : http://www.onlinewebfonts.com/icon </metadata>
<g><g><g><path fill="#000000" d="M117.4,12.7c-22.3,2-43.8,10.5-62.3,24.8c-9,6.9-20.6,19.9-27.4,30.5c-2.9,4.5-8.5,16.1-10.7,21.9c-5.4,14.6-7.9,32.4-6.8,47.9c0.6,8.8,1.5,14,3.6,22.3c2.1,8.2,4.2,13.8,8.5,22.6c6.1,12.4,12.8,21.8,22.7,31.5C58.1,227,71.7,235.5,89.7,242l5,1.8l1.8-3.3c4.2-8.2,11.3-16.3,16.9-19.7c5.3-3.1,8.2-3.9,14.4-3.9s9.1,0.8,14.4,3.9c5.7,3.4,13.2,12.2,17.2,20.1c1.6,3.3,0.8,3.2,8.8,0.4c6.9-2.4,18.7-8.3,24.9-12.5c13.5-9,25.1-20.6,33.8-33.9c3.7-5.6,9.7-17.6,12.1-24.2c5.4-14.6,7.9-32.7,6.8-48.1c-2.2-30.1-14.6-56.7-36.3-77.5C185,21.5,151.3,9.7,117.4,12.7z M142,22.6c23.8,2.8,46.3,14.2,63.8,32.1c17,17.5,27.3,39,30.2,63.4c0.8,6.3,0.6,19.4-0.2,26.3c-4.9,37.8-29.6,70.6-64.7,85.6c-5.2,2.2-5.4,2.3-6,1.5c-8.2-11.7-13.6-16.8-22.4-20.9c-5.6-2.6-9.8-3.4-16.6-3.1c-4,0.1-6.5,0.5-8.6,1.2c-9.8,3.2-18.2,9.9-24.7,19.7l-2.5,3.7l-3.6-1.4c-8.8-3.6-18.5-9.3-26.5-15.7c-21.6-17.2-36.1-43-39.8-70.7c-0.9-6.5-1-20.2-0.3-26.3c2.4-19.6,9.4-37.2,21-52.7c4.6-6.1,15.6-17.3,21.5-21.7c9.3-6.9,19.1-12.2,29.2-15.7C108.5,22.1,123.7,20.5,142,22.6z"/><path fill="#000000" d="M121.1,37.7c-6.8,2.4-11.8,7.8-13.6,15c-3.7,14.3,9,28.3,23.7,26c18.2-2.9,24.4-25.8,10-37.5c-3.9-3.1-6.8-4.1-12.5-4.3C124.8,36.6,123.6,36.8,121.1,37.7z M133.3,47.2c2.2,1.1,4.7,3.7,5.5,5.8c2,4.8,1,9.4-2.7,13c-3.4,3.3-7.4,4.3-12,2.9c-2.1-0.6-5.6-3.6-6.6-5.4c-3.4-6.5-0.3-14.3,6.5-16.9C126.5,45.6,130.9,45.9,133.3,47.2z"/><path fill="#000000" d="M71.5,58.2c-7.8,2.8-12.7,8.4-14.3,16.4c-2,9.6,3.7,20,12.9,23.5c5.8,2.2,11.6,1.9,17.3-0.8c4.3-2.1,7.5-5.3,9.7-9.8c1.5-3,1.8-3.9,1.9-7.7c0.4-9.3-4.1-16.8-12.2-20.7c-2.8-1.3-3.6-1.5-8-1.6C74.9,57.4,73.3,57.6,71.5,58.2z M83,67.8c7.3,3.5,9,13.2,3.3,19c-4.2,4.2-11.3,4.5-16,0.6c-0.9-0.8-2.2-2.4-2.9-3.8c-3.1-6.2-0.1-13.9,6.4-16.3C76.2,66.5,80.7,66.7,83,67.8z"/><path fill="#000000" d="M171.6,58.2c-3.6,1.3-6.2,3-8.9,5.8c-4.2,4.5-5.9,9.1-5.6,15.8c0.1,3.8,0.4,4.7,1.9,7.7c3.8,7.7,10.6,12,19,12c11.8,0.1,21.2-9.3,21.1-21.1c0-8.5-4.3-15.2-12-19c-3.3-1.7-3.8-1.8-8.4-1.9C175,57.4,173.4,57.6,171.6,58.2z M182,67.3c10.3,3.6,10.3,18.6,0,22.1c-7.7,2.6-15.7-3-15.7-11.1C166.3,70.4,174.3,64.7,182,67.3z"/><path fill="#000000" d="M52.8,107.7c-3.4,0.6-7.9,3.1-10.7,5.9c-7.9,7.9-8.2,21-0.6,29.1c9.7,10.4,25.8,9,33.5-2.8c2.4-3.7,3.4-7.6,3.1-12.7c-0.1-3.6-0.4-4.6-1.9-7.7C71.9,110.6,62.5,105.9,52.8,107.7z M62.3,118c3.9,1.8,6.2,5.1,6.5,9.6c0.5,4.7-2.2,9.3-6.5,11.6c-2.6,1.4-7.6,1.4-10.2,0c-8.9-4.7-8.9-16.9,0-21.3C54.8,116.6,59.3,116.6,62.3,118z"/><path fill="#000000" d="M193.9,108c-16.2,3.9-21.7,24.8-9.4,36.1c7.1,6.5,17.7,7.5,25.6,2.4c11.5-7.4,13.3-23.3,3.8-32.8C208.5,108.3,201.1,106.2,193.9,108z M203.3,117.6c5.5,2.3,8.5,8.7,6.7,14.6c-0.7,2.3-3.6,5.6-6.1,7c-2.6,1.4-7.6,1.4-10.2,0c-8.8-4.6-8.8-17.1,0-21.2C196.5,116.7,200.8,116.6,203.3,117.6z"/></g></g></g>
</svg>