<?xml version="1.0" encoding="UTF-8" standalone="no"?>
<!-- Created with Inkscape (http://www.inkscape.org/) -->

<svg
   width="41.528408mm"
   height="30.209414mm"
   viewBox="0 0 41.528408 30.209414"
   version="1.1"
   id="svg1"
   xml:space="preserve"
   inkscape:version="1.3 (0e150ed6c4, 2023-07-21)"
   sodipodi:docname="rtpmidi.svg"
   xmlns:inkscape="http://www.inkscape.org/namespaces/inkscape"
   xmlns:sodipodi="http://sodipodi.sourceforge.net/DTD/sodipodi-0.dtd"
   xmlns="http://www.w3.org/2000/svg"
   xmlns:svg="http://www.w3.org/2000/svg"><sodipodi:namedview
     id="namedview1"
     pagecolor="#ffffff"
     bordercolor="#000000"
     borderopacity="0.25"
     inkscape:showpageshadow="2"
     inkscape:pageopacity="0.0"
     inkscape:pagecheckerboard="0"
     inkscape:deskcolor="#d1d1d1"
     inkscape:document-units="mm"
     inkscape:zoom="3.609767"
     inkscape:cx="50.695792"
     inkscape:cy="58.591039"
     inkscape:window-width="1920"
     inkscape:window-height="1011"
     inkscape:window-x="0"
     inkscape:window-y="32"
     inkscape:window-maximized="1"
     inkscape:current-layer="layer1" /><defs
     id="defs1" /><g
     inkscape:label="Layer 1"
     inkscape:groupmode="layer"
     id="layer1"
     transform="translate(-38.910507,-137.59866)"><text
       xml:space="preserve"
       style="font-style:normal;font-variant:normal;font-weight:normal;font-stretch:normal;font-size:19.7556px;font-family:Sans;-inkscape-font-specification:'Sans, Normal';font-variant-ligatures:normal;font-variant-caps:normal;font-variant-numeric:normal;font-variant-east-asian:normal;fill:#000000;fill-opacity:1;stroke:none;stroke-width:0.264583;stroke-opacity:1"
       x="36.971603"
       y="167.80807"
       id="text2"><tspan
         sodipodi:role="line"
         id="tspan2"
         style="fill:#000000;fill-opacity:1;stroke:none;stroke-width:0.264583"
         x="36.971603"
         y="167.80807">MIDI</tspan></text><text
       xml:space="preserve"
       style="font-size:3.175px;fill:none;stroke:#000000;stroke-width:0.264583;stroke-opacity:1"
       x="37.413193"
       y="151.84303"
       id="text1"><tspan
         sodipodi:role="line"
         id="tspan1"
         style="font-style:normal;font-variant:normal;font-weight:normal;font-stretch:normal;font-size:19.7556px;font-family:Sans;-inkscape-font-specification:'Sans, Normal';font-variant-ligatures:normal;font-variant-caps:normal;font-variant-numeric:normal;font-variant-east-asian:normal;fill:none;stroke:#000000;stroke-width:0.264583;stroke-opacity:1"
         x="37.413193"
         y="151.84303">rtp</tspan></text><g
       id="g6"
       transform="matrix(0.06130936,0,0,0.06130936,65.353462,136.84819)"><path
         fill="#000000"
         d="M 117.4,12.7 C 95.1,14.7 73.6,23.2 55.1,37.5 46.1,44.4 34.5,57.4 27.7,68 24.8,72.5 19.2,84.1 17,89.9 c -5.4,14.6 -7.9,32.4 -6.8,47.9 0.6,8.8 1.5,14 3.6,22.3 2.1,8.2 4.2,13.8 8.5,22.6 6.1,12.4 12.8,21.8 22.7,31.5 13.1,12.8 26.7,21.3 44.7,27.8 l 5,1.8 1.8,-3.3 c 4.2,-8.2 11.3,-16.3 16.9,-19.7 5.3,-3.1 8.2,-3.9 14.4,-3.9 6.2,0 9.1,0.8 14.4,3.9 5.7,3.4 13.2,12.2 17.2,20.1 1.6,3.3 0.8,3.2 8.8,0.4 6.9,-2.4 18.7,-8.3 24.9,-12.5 13.5,-9 25.1,-20.6 33.8,-33.9 3.7,-5.6 9.7,-17.6 12.1,-24.2 5.4,-14.6 7.9,-32.7 6.8,-48.1 C 243.6,92.5 231.2,65.9 209.5,45.1 185,21.5 151.3,9.7 117.4,12.7 Z m 24.6,9.9 c 23.8,2.8 46.3,14.2 63.8,32.1 17,17.5 27.3,39 30.2,63.4 0.8,6.3 0.6,19.4 -0.2,26.3 -4.9,37.8 -29.6,70.6 -64.7,85.6 -5.2,2.2 -5.4,2.3 -6,1.5 -8.2,-11.7 -13.6,-16.8 -22.4,-20.9 -5.6,-2.6 -9.8,-3.4 -16.6,-3.1 -4,0.1 -6.5,0.5 -8.6,1.2 -9.8,3.2 -18.2,9.9 -24.7,19.7 l -2.5,3.7 -3.6,-1.4 C 77.9,227.1 68.2,221.4 60.2,215 38.6,197.8 24.1,172 20.4,144.3 19.5,137.8 19.4,124.1 20.1,118 22.5,98.4 29.5,80.8 41.1,65.3 45.7,59.2 56.7,48 62.6,43.6 71.9,36.7 81.7,31.4 91.8,27.9 108.5,22.1 123.7,20.5 142,22.6 Z"
         id="path1" /><path
         fill="#000000"
         d="m 121.1,37.7 c -6.8,2.4 -11.8,7.8 -13.6,15 -3.7,14.3 9,28.3 23.7,26 18.2,-2.9 24.4,-25.8 10,-37.5 -3.9,-3.1 -6.8,-4.1 -12.5,-4.3 -3.9,-0.3 -5.1,-0.1 -7.6,0.8 z m 12.2,9.5 c 2.2,1.1 4.7,3.7 5.5,5.8 2,4.8 1,9.4 -2.7,13 -3.4,3.3 -7.4,4.3 -12,2.9 -2.1,-0.6 -5.6,-3.6 -6.6,-5.4 -3.4,-6.5 -0.3,-14.3 6.5,-16.9 2.5,-1 6.9,-0.7 9.3,0.6 z"
         id="path2" /><path
         fill="#000000"
         d="m 71.5,58.2 c -7.8,2.8 -12.7,8.4 -14.3,16.4 -2,9.6 3.7,20 12.9,23.5 5.8,2.2 11.6,1.9 17.3,-0.8 4.3,-2.1 7.5,-5.3 9.7,-9.8 1.5,-3 1.8,-3.9 1.9,-7.7 C 99.4,70.5 94.9,63 86.8,59.1 84,57.8 83.2,57.6 78.8,57.5 74.9,57.4 73.3,57.6 71.5,58.2 Z M 83,67.8 c 7.3,3.5 9,13.2 3.3,19 -4.2,4.2 -11.3,4.5 -16,0.6 -0.9,-0.8 -2.2,-2.4 -2.9,-3.8 -3.1,-6.2 -0.1,-13.9 6.4,-16.3 2.4,-0.8 6.9,-0.6 9.2,0.5 z"
         id="path3" /><path
         fill="#000000"
         d="m 171.6,58.2 c -3.6,1.3 -6.2,3 -8.9,5.8 -4.2,4.5 -5.9,9.1 -5.6,15.8 0.1,3.8 0.4,4.7 1.9,7.7 3.8,7.7 10.6,12 19,12 11.8,0.1 21.2,-9.3 21.1,-21.1 0,-8.5 -4.3,-15.2 -12,-19 -3.3,-1.7 -3.8,-1.8 -8.4,-1.9 -3.7,-0.1 -5.3,0.1 -7.1,0.7 z m 10.4,9.1 c 10.3,3.6 10.3,18.6 0,22.1 -7.7,2.6 -15.7,-3 -15.7,-11.1 0,-7.9 8,-13.6 15.7,-11 z"
         id="path4" /><path
         fill="#000000"
         d="m 52.8,107.7 c -3.4,0.6 -7.9,3.1 -10.7,5.9 -7.9,7.9 -8.2,21 -0.6,29.1 9.7,10.4 25.8,9 33.5,-2.8 2.4,-3.7 3.4,-7.6 3.1,-12.7 -0.1,-3.6 -0.4,-4.6 -1.9,-7.7 -4.3,-8.9 -13.7,-13.6 -23.4,-11.8 z m 9.5,10.3 c 3.9,1.8 6.2,5.1 6.5,9.6 0.5,4.7 -2.2,9.3 -6.5,11.6 -2.6,1.4 -7.6,1.4 -10.2,0 -8.9,-4.7 -8.9,-16.9 0,-21.3 2.7,-1.3 7.2,-1.3 10.2,0.1 z"
         id="path5" /><path
         fill="#000000"
         d="m 193.9,108 c -16.2,3.9 -21.7,24.8 -9.4,36.1 7.1,6.5 17.7,7.5 25.6,2.4 11.5,-7.4 13.3,-23.3 3.8,-32.8 -5.4,-5.4 -12.8,-7.5 -20,-5.7 z m 9.4,9.6 c 5.5,2.3 8.5,8.7 6.7,14.6 -0.7,2.3 -3.6,5.6 -6.1,7 -2.6,1.4 -7.6,1.4 -10.2,0 -8.8,-4.6 -8.8,-17.1 0,-21.2 2.8,-1.3 7.1,-1.4 9.6,-0.4 z"
         id="path6" /></g></g></svg>
